<svg width="111" height="80" viewBox="0 0 111 80" fill="none" xmlns="http://www.w3.org/2000/svg">
<g clip-path="url(#clip0)">
<path opacity="0.1" d="M108.222 63.9198C105.496 69.5403 99.9559 73.2986 94.2172 75.7772C89.6224 77.7485 84.7655 79.0431 79.7984 79.6206C78.8471 79.7334 77.8927 79.8209 76.9352 79.8831C74.4886 80.0424 72.034 80.0396 69.5878 79.8749C68.1163 79.7771 66.65 79.6209 65.1888 79.4062C60.1115 78.6664 55.1616 77.2266 50.4805 75.128C49.1295 74.5203 47.8058 73.8568 46.5096 73.1376C44.3445 71.9389 42.27 70.5838 40.3027 69.083C39.8674 68.7507 39.4376 68.4113 39.0133 68.0647L38.8387 67.9222C38.5051 67.6473 38.1745 67.3664 37.8388 67.0936C37.2808 66.6267 36.6885 66.2023 36.0669 65.8241C36.0248 65.7995 35.9827 65.7748 35.9396 65.7513C35.8246 65.6846 35.7076 65.6221 35.5885 65.5626C35.3432 65.439 35.0917 65.3281 34.835 65.2303C33.6492 64.7791 32.3793 64.6151 31.092 64.6427C30.8784 64.6427 30.6649 64.6571 30.4503 64.6715C30.1506 64.692 29.8498 64.7227 29.55 64.7617L29.4391 64.7771C28.4839 64.9121 27.5394 65.1146 26.6129 65.3831C25.1818 65.7933 23.7763 66.306 22.3617 66.7685C21.7611 66.9664 21.1595 67.1551 20.5528 67.3243L20.4193 67.3612C19.5564 67.6037 18.678 67.7873 17.7902 67.9109C15.7726 68.1685 13.7235 68.0037 11.7732 67.4269L11.7055 67.4074L11.5802 67.3705L11.4088 67.3171C11.1213 67.2269 10.8363 67.1281 10.5536 67.0208L10.3822 66.9551C10.1084 66.8499 9.84044 66.7367 9.57832 66.6157L9.40687 66.5378C9.13311 66.4106 8.86516 66.2763 8.60304 66.1348C8.50859 66.0856 8.41516 66.0322 8.32277 65.982C8.04353 65.8261 7.76977 65.6627 7.50148 65.4918C7.21677 65.3107 6.93822 65.1216 6.66582 64.9247C6.53989 64.8345 6.41533 64.7419 6.29214 64.6468C5.58197 64.1043 4.91695 63.5052 4.30359 62.8554C4.26971 62.8215 4.23789 62.7867 4.20607 62.7528C4.04283 62.5765 3.88268 62.397 3.72766 62.2134C3.67017 62.1458 3.61268 62.0781 3.55622 62.0083C3.37212 61.7841 3.19451 61.5547 3.02341 61.3203C2.99774 61.2864 2.97311 61.2516 2.94847 61.2177C2.24702 60.2487 1.6655 59.1986 1.21658 58.0901C1.2022 58.0562 1.18886 58.0214 1.17654 57.9875C1.03966 57.6355 0.914753 57.2776 0.801826 56.9139C0.755629 56.7621 0.711484 56.6062 0.672473 56.4545C0.659127 56.4094 0.646808 56.3632 0.635515 56.3181C0.0688266 54.0898 0.00415039 51.7733 0.00415039 49.4701C0.00415039 49.2014 0.00415039 48.9331 0.00415039 48.6651C0.0205761 44.9396 0.0780661 41.1506 0.628329 37.4763C0.628329 37.4507 0.635515 37.4251 0.639622 37.4005C0.823792 36.1635 1.0743 34.9374 1.39007 33.7273C1.72056 32.4575 2.14292 31.2135 2.65383 30.0049C3.91964 27.031 5.76035 24.3249 7.80433 21.8166C10.2682 18.7987 13.0914 16.0135 16.2359 13.7155C16.6876 13.3853 17.1455 13.0647 17.6095 12.7536L17.824 12.6131C17.899 12.5629 17.9739 12.5106 18.0489 12.4665C18.2029 12.3639 18.3569 12.2675 18.5129 12.1701L18.6874 12.0614L19.02 11.8563L19.1227 11.7979L19.3003 11.6953L19.4759 11.5928C19.6812 11.4718 19.8889 11.3535 20.099 11.238C20.9963 10.7382 21.9147 10.2816 22.8544 9.86796C23.1316 9.74559 23.4105 9.62766 23.6911 9.51418C24.9651 8.9959 26.2738 8.56724 27.6076 8.23133C28.1004 8.10691 28.5963 7.99753 29.0952 7.90319C29.6838 7.7897 30.2755 7.6957 30.8702 7.62118C31.8166 7.50224 32.7685 7.43139 33.7221 7.40891C40.4279 7.24587 47.2015 9.42599 52.4567 13.6047C54.551 15.2701 56.4328 17.242 58.7848 18.5187C60.838 19.6303 63.2413 20.0907 65.4403 19.216C67.2574 18.4931 68.44 18.1342 70.4809 18.2439C74.704 18.4815 78.8675 19.3512 82.8321 20.8239C82.9922 20.8824 83.1524 20.9429 83.3115 21.0034C93.6505 24.9565 102.54 32.8064 107.158 42.8938C107.279 43.1604 107.398 43.4291 107.514 43.6998C110.268 50.1243 111.262 57.6563 108.222 63.9198Z" fill="#F9A826"/>
<path opacity="0.1" d="M20.5496 28.4451V67.3264L20.4161 67.3633C19.5532 67.6057 18.6748 67.7894 17.787 67.9129C15.7694 68.1706 13.7203 68.0057 11.77 67.4289L11.7023 67.4094L11.577 67.3725L11.4056 67.3192C11.1181 67.2289 10.8331 67.1302 10.5504 67.0228L10.379 66.9572C10.1052 66.8519 9.83727 66.7388 9.57514 66.6178L9.4037 66.5398C9.12993 66.4127 8.86199 66.2783 8.59986 66.1368C8.50541 66.0876 8.41199 66.0343 8.3196 65.984C8.04036 65.8282 7.76659 65.6648 7.49831 65.4939C7.21359 65.3127 6.93504 65.1237 6.66265 64.9268C6.53672 64.8366 6.41215 64.7439 6.28896 64.6489C5.5788 64.1063 4.91378 63.5072 4.30042 62.8574C4.26654 62.8236 4.23471 62.7887 4.20289 62.7549C4.03966 62.5785 3.87951 62.399 3.72449 62.2155C3.667 62.1478 3.60951 62.0801 3.55305 62.0104C3.36894 61.7862 3.19134 61.5568 3.02024 61.3223C2.99457 61.2885 2.96993 61.2536 2.94529 61.2198C2.24385 60.2508 1.66233 59.2006 1.2134 58.0921C1.19903 58.0583 1.18568 58.0234 1.17337 57.9896C1.03648 57.6375 0.911579 57.2796 0.798652 56.9159C0.752455 56.7641 0.708311 56.6083 0.669299 56.4565C0.655953 56.4114 0.643634 56.3652 0.632341 56.3201C0.0656527 54.0918 0.000976562 51.7753 0.000976562 49.4721C0.000976562 49.2034 0.000976562 48.9351 0.000976562 48.6671C0.0174023 44.9417 0.0748922 41.1526 0.625155 37.4784C0.625155 37.4527 0.632341 37.4271 0.636448 37.4025C0.820618 36.1656 1.07113 34.9394 1.3869 33.7293H11.8706V28.4451H13.9608V24.2007H18.4594V28.4451H20.5496Z" fill="#F9A826"/>
<path opacity="0.1" d="M108.222 63.9198C105.495 69.5403 99.9559 73.2986 94.2171 75.7771C89.6224 77.7484 84.7655 79.0431 79.7984 79.6205C78.8471 79.7333 77.8927 79.8208 76.9352 79.8831C74.4885 80.0423 72.034 80.0396 69.5877 79.8748C68.1163 79.7771 66.6499 79.6209 65.1887 79.4062C60.1115 78.6664 55.1616 77.2266 50.4805 75.128C49.1295 74.5203 47.8058 73.8568 46.5096 73.1376C44.3445 71.9389 42.27 70.5837 40.3027 69.0829C39.8674 68.7507 39.4376 68.4113 39.0133 68.0647L38.8387 67.9221C38.5051 67.6473 38.1745 67.3663 37.8388 67.0936C37.2808 66.6267 36.6885 66.2023 36.0669 65.824C36.0248 65.7994 35.9827 65.7748 35.9396 65.7512C35.8246 65.6846 35.7076 65.622 35.5885 65.5626C35.3432 65.439 35.0917 65.3281 34.835 65.2303V49.3244H53.8878V52.8653H62.2495V26.9644H72.0917V37.3215H76.9598V31.1892H80.9821V24.6386H82.83V20.8239C82.9901 20.8824 83.1503 20.9429 83.3094 21.0034V24.6386H85.108V31.1933H89.1272V37.3256H95.0538V60.6886H104.474V43.6978H107.51C110.268 50.1243 111.262 57.6563 108.222 63.9198Z" fill="#F9A826"/>
<path opacity="0.1" d="M69.5897 30.8621H65.1907V35.2562H69.5897V30.8621Z" fill="#F9A826"/>
<path opacity="0.1" d="M69.5897 39.9702H65.1907V44.3643H69.5897V39.9702Z" fill="#F9A826"/>
<path opacity="0.1" d="M69.5897 49.0794H65.1907V53.4735H69.5897V49.0794Z" fill="#F9A826"/>
<path opacity="0.1" d="M69.5897 58.1885H65.1907V62.5826H69.5897V58.1885Z" fill="#F9A826"/>
<path opacity="0.1" d="M69.5897 67.2966H65.1907V71.6907H69.5897V67.2966Z" fill="#F9A826"/>
<path opacity="0.1" d="M69.5897 76.4037V79.8738C68.1182 79.7761 66.6519 79.6199 65.1907 79.4052V76.4037H69.5897Z" fill="#F9A826"/>
<path opacity="0.1" d="M51.6836 55.0035H36.2855V56.9939H51.6836V55.0035Z" fill="#F9A826"/>
<path opacity="0.1" d="M51.6836 61.0485H36.2855V63.0389H51.6836V61.0485Z" fill="#F9A826"/>
<path opacity="0.1" d="M51.6836 67.0936V69.083H40.3047C39.8694 68.7508 39.4396 68.4113 39.0153 68.0647L38.8407 67.9222C38.5071 67.6474 38.1765 67.3664 37.8408 67.0936H51.6836Z" fill="#F9A826"/>
<path opacity="0.1" d="M51.6835 73.1377V75.1281H50.4824C49.1314 74.5204 47.8077 73.8569 46.5115 73.1377H51.6835Z" fill="#F9A826"/>
<path opacity="0.1" d="M79.8005 42.7606H76.9373V45.6206H79.8005V42.7606Z" fill="#F9A826"/>
<path opacity="0.1" d="M17.7931 29.4316H14.9299V32.2916H17.7931V29.4316Z" fill="#F9A826"/>
<path opacity="0.1" d="M17.7931 36.0766H14.9299V38.9366H17.7931V36.0766Z" fill="#F9A826"/>
<path opacity="0.1" d="M17.7931 42.7206H14.9299V45.5806H17.7931V42.7206Z" fill="#F9A826"/>
<path opacity="0.1" d="M17.7931 49.3655H14.9299V52.2255H17.7931V49.3655Z" fill="#F9A826"/>
<path opacity="0.1" d="M17.7931 56.0105H14.9299V58.8705H17.7931V56.0105Z" fill="#F9A826"/>
<path opacity="0.1" d="M17.7931 62.6544H14.9299V65.5144H17.7931V62.6544Z" fill="#F9A826"/>
<path opacity="0.1" d="M90.7328 42.7606H87.8696V45.6206H90.7328V42.7606Z" fill="#F9A826"/>
<path opacity="0.1" d="M79.8005 49.8157H76.9373V52.6757H79.8005V49.8157Z" fill="#F9A826"/>
<path opacity="0.1" d="M90.7328 49.8157H87.8696V52.6757H90.7328V49.8157Z" fill="#F9A826"/>
<path opacity="0.1" d="M79.8005 56.8718H76.9373V59.7318H79.8005V56.8718Z" fill="#F9A826"/>
<path opacity="0.1" d="M90.7328 56.8718H87.8696V59.7318H90.7328V56.8718Z" fill="#F9A826"/>
<path opacity="0.1" d="M79.8005 63.928H76.9373V66.788H79.8005V63.928Z" fill="#F9A826"/>
<path opacity="0.1" d="M90.7328 63.928H87.8696V66.788H90.7328V63.928Z" fill="#F9A826"/>
<path opacity="0.1" d="M79.8005 70.9832H76.9373V73.8431H79.8005V70.9832Z" fill="#F9A826"/>
<path opacity="0.1" d="M90.7328 70.9832H87.8696V73.8431H90.7328V70.9832Z" fill="#F9A826"/>
<path opacity="0.1" d="M76.9373 79.8831V78.0383H79.8005V79.6205L76.9373 79.8831Z" fill="#F9A826"/>
<path opacity="0.1" d="M0.626221 37.4036V39.0443H11.5771V37.4036H0.626221ZM1.6015 38.9417H0.797664V37.5061H1.6015V38.9417ZM2.57678 38.9417H1.77294V37.5061H2.57678V38.9417ZM3.55206 38.9417H2.74822V37.5061H3.55206V38.9417ZM4.52734 38.9417H3.7235V37.5061H4.52734V38.9417ZM5.50262 38.9417H4.69878V37.5061H5.50262V38.9417ZM6.4779 38.9417H5.67406V37.5061H6.4779V38.9417ZM7.45317 38.9417H6.64934V37.5061H7.45317V38.9417ZM8.42845 38.9417H7.62462V37.5061H8.42845V38.9417ZM9.40373 38.9417H8.5999V37.5061H9.40373V38.9417ZM10.379 38.9417H9.57518V37.5061H10.379V38.9417ZM11.4056 38.9417H10.5505V37.5061H11.4056V38.9417Z" fill="#F9A826"/>
<path opacity="0.1" d="M0.626221 42.1678V43.8034H11.5771V42.1678H0.626221ZM1.6015 43.7009H0.797664V42.2704H1.6015V43.7009ZM2.57678 43.7009H1.77294V42.2704H2.57678V43.7009ZM3.55206 43.7009H2.74822V42.2704H3.55206V43.7009ZM4.52734 43.7009H3.7235V42.2704H4.52734V43.7009ZM5.50262 43.7009H4.69878V42.2704H5.50262V43.7009ZM6.4779 43.7009H5.67406V42.2704H6.4779V43.7009ZM7.45317 43.7009H6.64934V42.2704H7.45317V43.7009ZM8.42845 43.7009H7.62462V42.2704H8.42845V43.7009ZM9.40373 43.7009H8.5999V42.2704H9.40373V43.7009ZM10.379 43.7009H9.57518V42.2704H10.379V43.7009ZM11.4056 43.7009H10.5505V42.2704H11.4056V43.7009Z" fill="#F9A826"/>
<path opacity="0.1" d="M0.626221 46.931V48.5667H11.5771V46.931H0.626221ZM1.6015 48.4641H0.797664V47.0336H1.6015V48.4641ZM2.57678 48.4641H1.77294V47.0336H2.57678V48.4641ZM3.55206 48.4641H2.74822V47.0336H3.55206V48.4641ZM4.52734 48.4641H3.7235V47.0336H4.52734V48.4641ZM5.50262 48.4641H4.69878V47.0336H5.50262V48.4641ZM6.4779 48.4641H5.67406V47.0336H6.4779V48.4641ZM7.45317 48.4641H6.64934V47.0336H7.45317V48.4641ZM8.42845 48.4641H7.62462V47.0336H8.42845V48.4641ZM9.40373 48.4641H8.5999V47.0336H9.40373V48.4641ZM10.379 48.4641H9.57518V47.0336H10.379V48.4641ZM11.4056 48.4641H10.5505V47.0336H11.4056V48.4641Z" fill="#F9A826"/>
<path opacity="0.1" d="M0.626221 51.6902V53.3309H11.5771V51.6902H0.626221ZM1.6015 53.2284H0.797664V51.7927H1.6015V53.2284ZM2.57678 53.2284H1.77294V51.7927H2.57678V53.2284ZM3.55206 53.2284H2.74822V51.7927H3.55206V53.2284ZM4.52734 53.2284H3.7235V51.7927H4.52734V53.2284ZM5.50262 53.2284H4.69878V51.7927H5.50262V53.2284ZM6.4779 53.2284H5.67406V51.7927H6.4779V53.2284ZM7.45317 53.2284H6.64934V51.7927H7.45317V53.2284ZM8.42845 53.2284H7.62462V51.7927H8.42845V53.2284ZM9.40373 53.2284H8.5999V51.7927H9.40373V53.2284ZM10.379 53.2284H9.57518V51.7927H10.379V53.2284ZM11.4056 53.2284H10.5505V51.7927H11.4056V53.2284Z" fill="#F9A826"/>
<path opacity="0.1" d="M0.668335 56.4576C0.707346 56.6114 0.751491 56.7652 0.797688 56.917V56.5601H1.60152V57.9957H1.1724C1.18472 58.0296 1.19807 58.0645 1.21244 58.0983H11.5812V56.4576H0.668335ZM2.5768 57.9957H1.77297V56.5601H2.5768V57.9957ZM3.55208 57.9957H2.74825V56.5601H3.55208V57.9957ZM4.52736 57.9957H3.72353V56.5601H4.52736V57.9957ZM5.50264 57.9957H4.69881V56.5601H5.50264V57.9957ZM6.47792 57.9957H5.67408V56.5601H6.47792V57.9957ZM7.4532 57.9957H6.64936V56.5601H7.4532V57.9957ZM8.42848 57.9957H7.62464V56.5601H8.42848V57.9957ZM9.40376 57.9957H8.59992V56.5601H9.40376V57.9957ZM10.379 57.9957H9.5752V56.5601H10.379V57.9957ZM11.4056 57.9957H10.5505V56.5601H11.4056V57.9957Z" fill="#F9A826"/>
<path opacity="0.1" d="M2.94434 61.2208C2.96897 61.2547 2.99361 61.2895 3.01928 61.3234H3.55209V62.0115C3.60855 62.0802 3.66604 62.1478 3.72353 62.2165V61.3244H4.52737V62.76H4.20193C4.23376 62.7939 4.26558 62.8287 4.29946 62.8626H11.5771V61.2219L2.94434 61.2208ZM5.50265 62.759H4.69881V61.3234H5.50265V62.759ZM6.47793 62.759H5.67409V61.3234H6.47793V62.759ZM7.45321 62.759H6.64937V61.3234H7.45321V62.759ZM8.42848 62.759H7.62465V61.3234H8.42848V62.759ZM9.40376 62.759H8.59993V61.3234H9.40376V62.759ZM10.379 62.759H9.57521V61.3234H10.379V62.759ZM11.4057 62.759H10.5505V61.3234H11.4057V62.759Z" fill="#F9A826"/>
<path opacity="0.1" d="M8.31958 65.9841C8.41198 66.0364 8.5054 66.0866 8.59985 66.1369V66.0866H9.40368V66.5399L9.57513 66.6178V66.0866H10.379V66.9572L10.5504 67.0229V66.0866H11.4056V67.3172L11.577 67.3705V65.9841H8.31958Z" fill="#F9A826"/>
<path opacity="0.1" d="M42.0869 23.1999C42.0869 23.1999 39.6394 23.0522 39.931 24.7648C39.916 24.8518 39.929 24.9413 39.9681 25.0205C40.0072 25.0997 40.0704 25.1646 40.1486 25.2057C40.1486 25.2057 40.1486 25.0786 40.3991 25.1216C40.487 25.136 40.5762 25.1402 40.665 25.1339C40.7851 25.126 40.8994 25.0792 40.9904 25.0006C40.9904 25.0006 41.6783 24.7166 41.9462 23.5937C41.9462 23.5937 42.1433 23.3486 42.1361 23.286L41.7255 23.4624C41.7255 23.4624 41.8672 23.7598 41.7563 24.0069C41.7563 24.0069 41.743 23.4737 41.6629 23.486C41.6475 23.486 41.4483 23.5886 41.4483 23.5886C41.4483 23.5886 41.6916 24.1074 41.5079 24.4838C41.5079 24.4838 41.5777 23.8459 41.3734 23.6265L41.0757 23.7978C41.0757 23.7978 41.36 24.333 41.167 24.7699C41.167 24.7699 41.2173 24.1003 41.0151 23.8398L40.7512 24.0449C40.7512 24.0449 41.0182 24.572 40.8539 24.935C40.8539 24.935 40.8323 24.1546 40.6927 24.0951C40.5925 24.1795 40.5032 24.2759 40.4268 24.3823C40.4268 24.3823 40.6096 24.7648 40.4966 24.9668C40.4966 24.9668 40.4268 24.4479 40.3693 24.4448C40.3693 24.4448 40.1404 24.7894 40.1168 25.0252C40.1274 24.8064 40.1953 24.5942 40.3139 24.41C40.1817 24.4349 40.0596 24.498 39.9628 24.5915C39.9628 24.5915 39.9987 24.3484 40.3735 24.3269C40.3735 24.3269 40.5634 24.0664 40.6147 24.05C40.6147 24.05 40.2441 24.0193 40.0193 24.1187C40.0193 24.1187 40.2174 23.889 40.6825 23.9936L40.9422 23.7813C40.9422 23.7813 40.4546 23.7147 40.2482 23.7885C40.2482 23.7885 40.4854 23.5834 41.012 23.7331L41.2953 23.5639C41.0777 23.5163 40.8548 23.497 40.6322 23.5065C40.6322 23.5065 40.8929 23.366 41.3785 23.5188L41.5838 23.4276C41.5838 23.4276 41.2758 23.3681 41.1906 23.3589C41.1054 23.3496 41.0962 23.325 41.0962 23.325C41.289 23.2929 41.487 23.3149 41.668 23.3886C41.668 23.3886 42.0941 23.2266 42.0869 23.1999Z" fill="#F9A826"/>
<path opacity="0.1" d="M35.6624 31.5338C35.6624 31.5338 34.8257 33.8349 36.5524 34.0452C36.6315 34.084 36.7208 34.0969 36.8077 34.082C36.8945 34.0671 36.9744 34.0251 37.036 33.9621C37.036 33.9621 36.9159 33.9221 37.0267 33.6975C37.0656 33.6177 37.0952 33.5338 37.115 33.4473C37.141 33.3298 37.128 33.2071 37.0781 33.0976C37.0781 33.0976 37.0011 32.3583 35.9991 31.783C35.9991 31.783 35.8205 31.5236 35.7578 31.5133L35.8092 31.9594C35.8092 31.9594 36.1346 31.9081 36.341 32.0845C36.341 32.0845 35.8277 31.946 35.8143 32.026C35.8143 32.0414 35.8523 32.2609 35.8523 32.2609C35.8523 32.2609 36.419 32.1747 36.728 32.4578C36.728 32.4578 36.1346 32.2096 35.8667 32.3439L35.9467 32.67C35.9467 32.67 36.5411 32.5511 36.9056 32.8587C36.9056 32.8587 36.2773 32.6218 35.9693 32.7408L36.0915 33.0484C36.0915 33.0484 36.6736 32.9459 36.9754 33.2012C36.9754 33.2012 36.2198 32.9961 36.1243 33.1171C36.1769 33.2365 36.2438 33.3491 36.3235 33.4524C36.3235 33.4524 36.7434 33.3868 36.9046 33.555C36.9046 33.555 36.3861 33.474 36.3676 33.5273C36.3676 33.5273 36.6335 33.8452 36.8532 33.9375C36.6469 33.8646 36.4633 33.7391 36.3204 33.5734C36.3068 33.7075 36.3329 33.8427 36.3954 33.9621C36.3954 33.9621 36.1716 33.8595 36.2568 33.4955C36.2568 33.4955 36.0597 33.2402 36.0597 33.1879C36.0597 33.1879 35.9242 33.5335 35.957 33.7775C35.957 33.7775 35.7927 33.5222 36.0248 33.1069L35.8954 32.7992C35.8954 32.7992 35.6901 33.2474 35.7045 33.4668C35.7045 33.4668 35.5772 33.1807 35.8687 32.7182L35.7876 32.3993C35.6802 32.593 35.5984 32.7998 35.5443 33.0146C35.5443 33.0146 35.4827 32.7244 35.7671 32.3029L35.7373 32.0835C35.7373 32.0835 35.5936 32.3583 35.5597 32.4413C35.5258 32.5244 35.5002 32.5213 35.5002 32.5213C35.5238 32.3274 35.6009 32.1439 35.7229 31.9912C35.7229 31.9912 35.6901 31.5338 35.6624 31.5338Z" fill="#F9A826"/>
<path opacity="0.1" d="M51.8859 29.5937C51.8859 29.5937 51.0502 31.8989 52.7759 32.104C52.8553 32.1428 52.9449 32.1556 53.0319 32.1405C53.1189 32.1254 53.1989 32.0832 53.2605 32.0199C53.2605 32.0199 53.1394 31.9799 53.2513 31.7564C53.2904 31.6765 53.3197 31.5921 53.3385 31.5051C53.3648 31.3878 53.3522 31.265 53.3026 31.1554C53.3026 31.1554 53.2256 30.4161 52.2236 29.8408C52.2236 29.8408 52.044 29.5824 51.9813 29.5721L52.0337 30.0172C52.0337 30.0172 52.3591 29.9669 52.5655 30.1433C52.5655 30.1433 52.0522 30.0049 52.0378 30.0838C52.0378 30.1003 52.0758 30.3187 52.0758 30.3187C52.0758 30.3187 52.6425 30.2336 52.9525 30.5156C52.9525 30.5156 52.3591 30.2684 52.0902 30.4017L52.1713 30.7289C52.1713 30.7289 52.7657 30.6089 53.1301 30.9175C53.1301 30.9175 52.5008 30.6796 52.1928 30.7986L52.315 31.1062C52.315 31.1062 52.8971 31.0037 53.1989 31.259C53.1989 31.259 52.4443 31.0539 52.3478 31.176C52.4021 31.2958 52.471 31.4085 52.5532 31.5113C52.5532 31.5113 52.972 31.4446 53.1342 31.6138C53.1342 31.6138 52.6158 31.5328 52.5973 31.5872C52.5973 31.5872 52.8622 31.904 53.0819 31.9973C52.8757 31.9247 52.6923 31.7992 52.5501 31.6333C52.5365 31.7673 52.5622 31.9023 52.624 32.022C52.624 32.022 52.4012 31.9194 52.4864 31.5564C52.4864 31.5564 52.2893 31.3 52.2883 31.2488C52.2883 31.2488 52.1538 31.5954 52.1856 31.8384C52.1856 31.8384 52.0214 31.5841 52.2534 31.1678L52.124 30.8601C52.124 30.8601 51.9187 31.3082 51.9331 31.5267C51.9331 31.5267 51.8058 31.2416 52.0974 30.7791L52.0152 30.4592C51.9078 30.6529 51.826 30.8597 51.7719 31.0744C51.7719 31.0744 51.7113 30.7842 51.9957 30.3628L51.9659 30.1433C51.9659 30.1433 51.8222 30.4181 51.7873 30.5012C51.7524 30.5843 51.7278 30.5812 51.7278 30.5812C51.7521 30.3873 51.8295 30.2038 51.9516 30.051C51.9516 30.051 51.9146 29.5947 51.8859 29.5937Z" fill="#F9A826"/>
<path opacity="0.1" d="M28.6947 48.4088C28.6947 48.4088 27.858 50.7109 29.5848 50.9211C29.6639 50.96 29.7534 50.9728 29.8403 50.9577C29.9272 50.9426 30.007 50.9004 30.0683 50.8371C30.0683 50.8371 29.9482 50.7971 30.0591 50.5735C30.0986 50.4936 30.1282 50.4093 30.1474 50.3223C30.1739 50.2048 30.1609 50.0819 30.1104 49.9726C30.1104 49.9726 30.0334 49.2332 29.0315 48.659C29.0315 48.659 28.8528 48.3995 28.7902 48.3893L28.8415 48.8343C28.8415 48.8343 29.168 48.7841 29.3733 48.9605C29.3733 48.9605 28.86 48.822 28.8467 48.901C28.8467 48.9174 28.8846 49.1358 28.8846 49.1358C28.8846 49.1358 29.4513 49.0507 29.7603 49.3327C29.7603 49.3327 29.167 49.0856 28.899 49.2189L28.9791 49.546C28.9791 49.546 29.5735 49.426 29.938 49.7347C29.938 49.7347 29.3097 49.4968 29.0017 49.6157L29.1238 49.9234C29.1238 49.9234 29.7059 49.8208 30.0078 50.0762C30.0078 50.0762 29.2532 49.8711 29.1567 49.9931C29.2093 50.1125 29.2762 50.2251 29.3559 50.3284C29.3559 50.3284 29.7757 50.2618 29.938 50.431C29.938 50.431 29.4185 50.35 29.4 50.4043C29.4 50.4043 29.6659 50.7212 29.8856 50.8145C29.6792 50.7422 29.4955 50.617 29.3528 50.4515C29.3392 50.5852 29.3653 50.72 29.4277 50.8391C29.4277 50.8391 29.2039 50.7366 29.2891 50.3735C29.2891 50.3735 29.093 50.1172 29.092 50.0659C29.092 50.0659 28.9565 50.4125 28.9894 50.6555C28.9894 50.6555 28.8251 50.4012 29.0571 49.9849L28.9278 49.6773C28.9278 49.6773 28.7224 50.1254 28.7378 50.3438C28.7378 50.3438 28.6105 50.0587 28.9021 49.5963L28.82 49.2773C28.7123 49.4709 28.6305 49.6778 28.5767 49.8926C28.5767 49.8926 28.5151 49.6014 28.7994 49.1809L28.7697 48.9605C28.7697 48.9605 28.6259 49.2353 28.5921 49.3183C28.5582 49.4014 28.5325 49.3983 28.5325 49.3983C28.5562 49.2043 28.6338 49.0206 28.7563 48.8682C28.7563 48.8682 28.7224 48.4088 28.6947 48.4088Z" fill="#F9A826"/>
<path opacity="0.1" d="M25.3746 26.7111C25.3746 26.7111 24.539 29.0122 26.2647 29.2225C26.344 29.2612 26.4334 29.2741 26.5204 29.2592C26.6074 29.2443 26.6875 29.2024 26.7493 29.1394C26.7493 29.1394 26.6281 29.0994 26.74 28.8748C26.7787 28.7947 26.808 28.7104 26.8273 28.6236C26.8536 28.5066 26.841 28.3842 26.7914 28.2749C26.7914 28.2749 26.7144 27.5356 25.7114 26.9603C25.7114 26.9603 25.5327 26.7009 25.4701 26.6906L25.5225 27.1367C25.5225 27.1367 25.8479 27.0854 26.0532 27.2618C26.0532 27.2618 25.5399 27.1234 25.5266 27.2033C25.5266 27.2187 25.5646 27.4382 25.5646 27.4382C25.5646 27.4382 26.1312 27.352 26.4413 27.6351C26.4413 27.6351 25.8479 27.3869 25.5789 27.5212L25.659 27.8473C25.659 27.8473 26.2534 27.7273 26.6189 28.036C26.6189 28.036 25.9896 27.7981 25.6816 27.9181L25.8038 28.2257C25.8038 28.2257 26.3858 28.1232 26.6877 28.3795C26.6877 28.3795 25.9331 28.1744 25.8366 28.2955C25.8892 28.4149 25.9561 28.5275 26.0358 28.6308C26.0358 28.6308 26.4557 28.5651 26.6179 28.7333C26.6179 28.7333 26.0994 28.6523 26.0809 28.7056C26.0809 28.7056 26.3458 29.0235 26.5655 29.1158C26.3593 29.0426 26.1757 28.9172 26.0327 28.7518C26.0191 28.8859 26.0451 29.021 26.1076 29.1404C26.1076 29.1404 25.8838 29.0379 25.9701 28.6738C25.9701 28.6738 25.773 28.4185 25.7719 28.3662C25.7719 28.3662 25.6374 28.7118 25.6693 28.9558C25.6693 28.9558 25.504 28.7005 25.737 28.2852L25.6067 27.9776C25.6067 27.9776 25.4013 28.4257 25.4167 28.6451C25.4167 28.6451 25.2894 28.359 25.581 27.8966L25.4989 27.5776C25.3914 27.7713 25.3096 27.9782 25.2556 28.1929C25.2556 28.1929 25.195 27.9027 25.4783 27.4812L25.4496 27.2618C25.4496 27.2618 25.3048 27.5366 25.271 27.6187C25.2371 27.7007 25.2114 27.6997 25.2114 27.6997C25.2351 27.5056 25.3126 27.322 25.4352 27.1695C25.4352 27.1695 25.4034 26.7111 25.3746 26.7111Z" fill="#F9A826"/>
<path opacity="0.1" d="M31.5795 39.2422C31.5795 39.2422 32.2252 41.6007 33.7569 40.7804C33.844 40.7665 33.9244 40.7256 33.9867 40.6633C34.049 40.6011 34.0901 40.5207 34.1039 40.4338C34.1039 40.4338 33.9828 40.4707 33.9448 40.2235C33.9303 40.1358 33.9055 40.0501 33.8709 39.9682C33.8254 39.8569 33.7441 39.7638 33.6399 39.7036C33.6399 39.7036 33.1502 39.1437 31.9973 39.2504C31.9973 39.2504 31.7016 39.1427 31.6441 39.1704L31.9439 39.5037C31.9439 39.5037 32.1811 39.275 32.4511 39.2986C32.4511 39.2986 31.949 39.4832 31.986 39.5539C31.9942 39.5683 32.1523 39.7241 32.1523 39.7241C32.1523 39.7241 32.563 39.3273 32.9818 39.3796C32.9818 39.3796 32.3546 39.519 32.2129 39.7836L32.4665 40.0041C32.4665 40.0041 32.8833 39.5642 33.3596 39.6052C33.3596 39.6052 32.7077 39.7734 32.525 40.0482L32.8042 40.2317C32.8042 40.2317 33.2149 39.8103 33.6152 39.8482C33.6152 39.8482 32.8822 40.1179 32.8709 40.2697C32.9831 40.3371 33.1031 40.3904 33.2282 40.4286C33.2282 40.4286 33.5362 40.1333 33.761 40.1753C33.761 40.1753 33.2898 40.4081 33.3062 40.4625C33.3062 40.4625 33.7066 40.565 33.9376 40.5158C33.7273 40.5754 33.505 40.5789 33.2929 40.5261C33.3589 40.6434 33.4582 40.7387 33.5783 40.7999C33.5783 40.7999 33.336 40.8439 33.1964 40.4984C33.1964 40.4984 32.8884 40.403 32.8555 40.3599C32.8555 40.3599 32.9459 40.7209 33.1122 40.9014C33.1122 40.9014 32.8309 40.7875 32.7806 40.3138L32.4962 40.1364C32.4962 40.1364 32.5897 40.6194 32.7252 40.7906C32.7252 40.7906 32.4562 40.6306 32.4274 40.0851L32.177 39.8718C32.2013 40.0931 32.2545 40.3103 32.3351 40.5178C32.3351 40.5178 32.1184 40.3128 32.1071 39.8082L31.9562 39.6452C31.9562 39.6452 31.9973 39.9528 32.0168 40.04C32.0363 40.1271 32.0168 40.1425 32.0168 40.1425C31.9243 39.9703 31.8817 39.7757 31.8936 39.5806C31.8936 39.5806 31.6031 39.2268 31.5795 39.2422Z" fill="#F9A826"/>
<path opacity="0.1" d="M49.0977 41.3485C49.0977 41.3485 49.7434 43.707 51.2741 42.8866C51.3614 42.8731 51.4421 42.8323 51.5047 42.77C51.5672 42.7077 51.6083 42.6272 51.6221 42.54C51.6221 42.54 51.4999 42.5769 51.4619 42.3349C51.4483 42.2471 51.4238 42.1614 51.389 42.0796C51.3428 41.9684 51.2613 41.8755 51.157 41.815C51.157 41.815 50.6673 41.2551 49.5145 41.3628C49.5145 41.3628 49.2188 41.2541 49.1623 41.2818L49.4611 41.6151C49.4611 41.6151 49.6982 41.3864 49.9682 41.41C49.9682 41.41 49.4662 41.5946 49.5042 41.6653C49.5114 41.6797 49.6705 41.8355 49.6705 41.8355C49.6705 41.8355 50.0811 41.4387 50.5 41.491C50.5 41.491 49.8717 41.6305 49.73 41.895L49.9846 42.1155C49.9846 42.1155 50.3953 41.6756 50.8768 41.7166C50.8768 41.7166 50.2259 41.8848 50.0432 42.1596L50.3224 42.3431C50.3224 42.3431 50.733 41.9217 51.1324 41.9596C51.1324 41.9596 50.3994 42.2293 50.3891 42.3811C50.5009 42.4485 50.6205 42.5019 50.7454 42.54C50.7454 42.54 51.0533 42.2447 51.2782 42.2867C51.2782 42.2867 50.808 42.5195 50.8234 42.5739C50.8234 42.5739 51.2238 42.6764 51.4558 42.6272C51.2451 42.6867 51.0225 42.6902 50.81 42.6374C50.8764 42.7546 50.9756 42.8497 51.0954 42.9112C51.0954 42.9112 50.8532 42.9553 50.7135 42.6098C50.7135 42.6098 50.4056 42.5144 50.3737 42.4713C50.3737 42.4713 50.463 42.8323 50.6294 43.0128C50.6294 43.0128 50.3481 42.8989 50.2978 42.4252L50.0134 42.2457C50.0134 42.2457 50.1068 42.7287 50.2433 42.9C50.2433 42.9 49.9744 42.74 49.9456 42.1945L49.6941 41.9812C49.7185 42.2026 49.772 42.4198 49.8532 42.6272C49.8532 42.6272 49.6356 42.4221 49.6243 41.9176L49.4734 41.7545C49.4734 41.7545 49.5145 42.0622 49.534 42.1493C49.5535 42.2365 49.534 42.2519 49.534 42.2519C49.4415 42.0796 49.3988 41.885 49.4108 41.6899C49.4108 41.6899 49.1213 41.3331 49.0977 41.3485Z" fill="#F9A826"/>
<path d="M42.5253 65.0345C42.5253 65.0345 47.8514 63.243 46.7488 56.8954L39.9834 55.1409L38.4127 60.3492L42.5253 65.0345Z" fill="#CED7E7"/>
<path opacity="0.1" d="M38.4127 60.3491L42.5243 65.0345C42.5243 65.0345 47.8503 63.243 46.7478 56.8954L38.4127 60.3491Z" fill="black"/>
<path d="M16.0325 13.455C16.0325 13.455 16.7512 14.623 17.7336 14.0395C18.7161 13.4561 17.7737 11.844 17.7737 11.844C17.7737 11.844 15.8919 11.5867 16.0325 13.455Z" fill="#FED253"/>
<path opacity="0.1" d="M17.7337 14.0395C17.6178 14.1144 17.4878 14.1649 17.3517 14.1878C17.2156 14.2107 17.0762 14.2056 16.9421 14.1728C16.5818 14.0815 16.3046 13.8047 16.1558 13.6232C16.1113 13.57 16.0702 13.5142 16.0326 13.456C15.9823 12.7895 16.1896 12.3926 16.4771 12.1588C16.8723 11.8378 17.4195 11.8245 17.6556 11.8348C17.7285 11.8348 17.7706 11.845 17.7706 11.845L17.7901 11.8778C17.8178 11.9301 17.8784 12.046 17.9431 12.2009C18.1628 12.7085 18.4246 13.6283 17.7337 14.0395Z" fill="black"/>
<path d="M43.0488 56.597L46.7446 56.8955L53.6229 56.9519L48.2034 63.6173C48.2034 63.6173 46.4838 63.7106 46.1296 63.9526C45.7755 64.1947 40.8026 64.0654 40.8026 64.0654L39.9998 60.6486L43.0488 56.597Z" fill="#FFA2A2"/>
<path opacity="0.05" d="M43.0488 56.597L46.7446 56.8955L53.6229 56.9519L48.2034 63.6173C48.2034 63.6173 46.4838 63.7106 46.1296 63.9526C45.7755 64.1947 40.8026 64.0654 40.8026 64.0654L39.9998 60.6486L43.0488 56.597Z" fill="black"/>
<path d="M39.3109 38.6761L40.1702 40.1323L40.357 42.6713C40.357 42.6713 40.9555 44.8361 41.4041 45.4708C41.8528 46.1056 42.0396 47.7863 42.0396 47.7863C42.0396 47.7863 42.2265 49.3542 42.4503 49.6896C42.6741 50.0249 42.9738 52.4583 42.9738 52.4583C42.9738 52.4583 44.9552 56.4155 46.7487 56.9006C46.7487 56.9006 37.8531 59.8129 42.5252 65.0396C42.5252 65.0396 39.199 65.86 38.4136 64.9278C37.6283 63.9957 35.573 50.1808 35.573 50.1808L36.2085 38.5316L39.3109 38.6761Z" fill="#CED7E7"/>
<path opacity="0.05" d="M39.3109 38.6761L40.1702 40.1323L40.357 42.6713C40.357 42.6713 40.9555 44.8361 41.4041 45.4708C41.8528 46.1056 42.0396 47.7863 42.0396 47.7863C42.0396 47.7863 42.2265 49.3542 42.4503 49.6896C42.6741 50.0249 42.9738 52.4583 42.9738 52.4583C42.9738 52.4583 44.9552 56.4155 46.7487 56.9006C46.7487 56.9006 37.8531 59.8129 42.5252 65.0396C42.5252 65.0396 39.199 65.86 38.4136 64.9278C37.6283 63.9957 35.573 50.1808 35.573 50.1808L36.2085 38.5316L39.3109 38.6761Z" fill="black"/>
<path d="M28.5181 24.4848C28.2685 25.7783 28.3426 27.1133 28.7337 28.3713L27.3499 32.3285C27.3499 32.3285 16.8097 26.467 17.7069 25.0478C18.2151 24.2428 18.2798 22.1129 18.2387 20.4209C18.2089 19.135 18.1176 18.1034 18.1176 18.1034C18.1176 18.1034 31.0528 19.3739 29.3312 22.3232C28.9416 22.9935 28.6668 23.7241 28.5181 24.4848Z" fill="#FFA2A2"/>
<path opacity="0.1" d="M29.3313 22.3231C28.9417 22.9935 28.6669 23.7241 28.5183 24.4848C26.5986 25.0982 24.5255 25.0286 22.6515 24.2877C20.7775 23.5468 19.2182 22.1805 18.2388 20.4209C18.209 19.135 18.1177 18.1034 18.1177 18.1034C18.1177 18.1034 31.0499 19.3739 29.3313 22.3231Z" fill="black"/>
<path d="M34.5638 15.9756C34.5647 17.3444 34.2422 18.6942 33.6226 19.9151C33.0029 21.136 32.1036 22.1937 30.9977 23.0021C29.8918 23.8105 28.6105 24.3468 27.2581 24.5674C25.9056 24.7881 24.5201 24.6869 23.2142 24.272C21.9082 23.8571 20.7187 23.1402 19.7424 22.1797C18.766 21.2192 18.0303 20.0421 17.5951 18.7441C17.1599 17.4461 17.0375 16.0638 17.2378 14.7097C17.4381 13.3555 17.9555 12.0677 18.7479 10.9508C18.871 10.7779 19.0007 10.609 19.1369 10.4443C19.913 9.5021 20.8787 8.73347 21.9714 8.18826C22.5642 7.892 23.1895 7.66557 23.8347 7.51351C24.9997 7.23784 26.2089 7.20456 27.3873 7.41574C28.5657 7.62692 29.6879 8.07804 30.6843 8.74105C31.6806 9.40405 32.5297 10.2647 33.1788 11.2696C33.8278 12.2744 34.2629 13.402 34.457 14.582C34.5296 15.043 34.5653 15.509 34.5638 15.9756Z" fill="#FFA2A2"/>
<path d="M38.002 51.7446C37.8717 52.4398 38.0349 53.7104 38.2823 55.0035C38.2926 55.0599 38.3039 55.1163 38.3151 55.1727C38.3264 55.2291 38.3429 55.3162 38.3572 55.387C38.4712 55.9428 38.5954 56.4935 38.7165 56.9939C38.8377 57.4943 38.9465 57.9229 39.0389 58.2757C39.1785 58.8038 39.274 59.1361 39.274 59.1361C39.274 59.1361 39.2863 59.4622 39.3027 59.981C39.312 60.2805 39.3223 60.6455 39.3325 61.0485C39.3325 61.1654 39.3397 61.2844 39.3428 61.4075C39.3479 61.6218 39.3531 61.8443 39.3582 62.0719C39.3582 62.1458 39.3582 62.2196 39.3633 62.2945C39.3633 62.5396 39.3726 62.7898 39.3767 63.039C39.3818 63.3815 39.3859 63.724 39.388 64.0562C39.388 64.1834 39.388 64.3085 39.388 64.4315C39.388 64.7494 39.388 65.054 39.388 65.3339C39.3767 66.1287 39.3448 66.7286 39.2771 66.9019C39.2535 66.9613 39.2319 67.0259 39.2114 67.0936C39.1224 67.4119 39.0578 67.7366 39.0184 68.0647L38.8439 67.9222C38.5102 67.6474 38.1796 67.3664 37.8439 67.0936C37.2859 66.6267 36.6936 66.2024 36.072 65.8241C36.0299 65.7995 35.9878 65.7749 35.9447 65.7513C35.8297 65.6846 35.7127 65.6221 35.5936 65.5626C35.3483 65.4391 35.0968 65.3282 34.8401 65.2304C33.6543 64.7792 32.3844 64.6151 31.0971 64.6428C30.5837 64.8386 30.2501 64.9791 30.2501 64.9791L29.5972 65.176L29.4884 65.2088C28.781 65.4242 27.7862 65.7298 27.4279 65.8569C26.8489 66.062 21.8216 67.1069 21.8216 67.1069C21.3624 67.2322 20.8932 67.3179 20.4193 67.3633C19.5564 67.6058 18.678 67.7894 17.7901 67.913C15.7726 68.1706 13.7234 68.0058 11.7732 67.4289C11.715 67.4324 11.6566 67.4307 11.5986 67.4238C11.6346 67.4238 11.6695 67.4156 11.7013 67.4095L11.5761 67.3725L11.4046 67.3192C11.1172 67.229 10.8321 67.1302 10.5495 67.0229L10.378 66.9572C10.1042 66.8519 9.8363 66.7388 9.57418 66.6178L9.40273 66.5399C9.12897 66.4127 8.86102 66.2784 8.5989 66.1369C8.50445 66.0876 8.41103 66.0343 8.31863 65.9841C8.03939 65.8282 7.76563 65.6648 7.49734 65.4939C7.45217 65.1073 7.42856 64.8489 7.42856 64.8489L7.02818 62.8575L7.00765 62.7549L6.7202 61.3193L6.69967 61.2167L6.07446 58.0932L6.05393 57.9906L5.76648 56.555L5.74595 56.4524L5.11253 53.331L5.092 53.2284L4.80455 51.7928L4.78401 51.6902L4.15573 48.5626L4.1352 48.46L3.84775 47.0295L3.82721 46.927L3.71326 46.363L3.54182 45.5088C3.54182 45.5088 2.99463 44.7274 2.37867 43.8034L2.30988 43.7009C2.13433 43.4414 1.95365 43.1717 1.7781 42.9072C1.71958 42.82 1.66312 42.7339 1.60666 42.6488C1.52111 42.5196 1.43829 42.3934 1.35822 42.2704L1.30278 42.1853L1.29149 42.1678C0.40655 40.7999 0.998903 40.2051 0.998903 40.2051C0.998903 40.2051 1.37054 39.7026 1.84996 39.0381C1.87357 39.0043 1.89821 38.9704 1.92388 38.9356C2.1292 38.6485 2.35505 38.3347 2.5768 38.0209L2.74825 37.7768C2.81292 37.6856 2.87657 37.5943 2.93817 37.504C2.96281 37.4702 2.98642 37.4353 3.00901 37.4015C3.48227 36.7185 3.87238 36.1228 3.95246 35.9115C4.07771 35.5782 4.87641 34.5928 5.67203 33.7283C6.29929 33.0454 6.92347 32.4383 7.20373 32.2927C7.83921 31.9573 8.10099 30.8734 8.10099 30.8734C8.10099 30.8734 9.48383 30.3894 9.67068 30.0162C9.85752 29.6429 12.4743 27.9652 12.4743 27.9652C12.4743 27.9652 13.5328 27.2843 13.9609 26.8742C14.0215 26.8205 14.0743 26.7587 14.118 26.6906C14.2668 26.424 15.239 26.2045 15.6343 26.1256C15.7369 26.1051 15.8006 26.0938 15.8006 26.0938C15.9601 25.8042 16.1618 25.5398 16.3991 25.3093C16.5603 25.1668 16.7615 24.6756 16.9309 24.1998C17.1146 23.6809 17.2573 23.1815 17.2573 23.1815C17.5571 22.1735 18.1546 22.4719 18.1546 22.4719C18.1538 22.6096 18.1668 22.747 18.1936 22.8821C18.4431 24.1126 19.7982 24.6253 20.5096 25.2006C21.295 25.8343 22.5279 27.4782 23.5001 27.8135C24.305 28.0914 25.2382 29.1394 25.5339 29.4891L25.5564 29.5157C25.6057 29.5732 25.6304 29.606 25.6304 29.606C25.6304 29.606 26.1816 29.5773 26.5173 29.5711H26.6395C26.7078 29.5643 26.7727 29.5379 26.8264 29.4952C27.16 29.2686 27.6569 28.6041 27.8735 28.4513C28.1343 28.2637 28.3971 25.2396 28.3971 25.2396L28.4104 25.2334C29.3416 24.7976 30.3404 29.1599 30.3404 29.1599C30.3404 29.1599 32.097 29.6829 32.2469 30.0562C32.2756 30.13 32.408 30.2612 32.6072 30.4202C33.514 31.1124 34.4792 31.7249 35.492 32.2506C35.5146 32.2619 35.5361 32.2732 35.5587 32.2824C35.5791 32.2934 35.6 32.3033 35.6213 32.3122C35.6593 32.3306 35.6963 32.347 35.7312 32.3624C35.7866 32.387 35.8379 32.4075 35.8852 32.4239L35.9468 32.4455C36.0939 32.4944 36.2325 32.566 36.3574 32.6577C36.3944 32.6844 36.4313 32.7121 36.4672 32.7418C36.607 32.858 36.7356 32.9871 36.8512 33.1274C36.8687 33.1479 36.8851 33.1694 36.9015 33.1899C36.9795 33.2874 37.0493 33.3838 37.1068 33.473C37.2012 33.6106 37.2872 33.7537 37.3645 33.9016C37.3645 33.9016 38.8962 36.5155 39.3828 36.8129C39.8694 37.1103 40.1682 40.1364 40.1682 40.1364L38.5256 46.2184C38.5256 46.2184 38.4486 47.7566 38.3049 49.3255C38.2248 50.2054 38.1232 51.1006 38.002 51.7446Z" fill="#CED7E7"/>
<path d="M25.6304 29.7906C25.6304 29.7906 24.5288 30.3874 23.6685 30.4438C23.5559 30.449 23.443 30.4425 23.3318 30.4243C22.4304 30.2879 21.1082 29.5475 21.1082 29.5475L22.6594 27.8483L24.5463 28.7825L25.2403 29.4275L25.6304 29.7906Z" fill="#63667E"/>
<path opacity="0.1" d="M34.453 14.582C34.414 14.6371 34.3696 14.6883 34.3206 14.7348C33.7806 15.2475 32.8217 15.0353 32.0856 14.9163C31.446 14.8119 30.8212 14.6315 30.2244 14.379C29.7049 14.1575 29.0818 13.8867 28.6147 14.2046C28.435 14.3256 28.3118 14.5195 28.125 14.6261C27.9381 14.7327 27.7 14.7399 27.4792 14.743C26.7606 14.743 26.042 14.7512 25.3408 14.5892C24.2947 14.3451 23.2127 13.7309 22.2179 14.1359C21.4397 14.4518 21.0178 15.2978 20.8073 16.111C20.7046 16.5099 20.6287 16.9313 20.3967 17.2697C20.1647 17.6081 19.716 17.8481 19.3341 17.6891C18.7705 17.4543 18.6874 16.4986 18.0077 16.4504C17.2614 16.3981 17.2706 17.1682 17.4883 17.725C17.8106 18.5454 18.2326 19.3658 18.2511 20.221C17.4489 18.7859 17.0699 17.1534 17.1578 15.5122C17.2458 13.8709 17.7971 12.2881 18.7479 10.9468C18.9134 10.8444 19.0429 10.6932 19.1185 10.514C19.1261 10.4898 19.1323 10.4651 19.137 10.4402C19.1935 10.1541 19.0344 9.85363 19.0251 9.55419C18.9892 8.82304 19.7817 8.31339 20.5086 8.2211C20.9921 8.15957 21.4869 8.20674 21.9715 8.19136C22.2156 8.18599 22.4583 8.15366 22.6952 8.09497C23.104 7.97261 23.4868 7.77622 23.8245 7.51558C24.9895 7.23991 26.1987 7.20663 27.3771 7.41781C28.5555 7.62899 29.6778 8.08012 30.6741 8.74312C31.6704 9.40612 32.5195 10.2668 33.1686 11.2717C33.8176 12.2765 34.2528 13.404 34.4468 14.5841L34.453 14.582Z" fill="black"/>
<path d="M34.6285 13.978C34.5773 14.1809 34.4707 14.3655 34.3205 14.5113C33.7805 15.024 32.8216 14.8107 32.0856 14.6917C31.4459 14.5896 30.821 14.4105 30.2243 14.1585C29.7049 13.938 29.0817 13.6673 28.6146 13.9852C28.4349 14.1062 28.3117 14.3 28.1249 14.4067C27.9381 14.5133 27.6999 14.5205 27.4792 14.5225C26.7605 14.5277 26.0419 14.5318 25.3407 14.3698C24.2946 14.1247 23.2126 13.5114 22.2178 13.9155C21.4396 14.2313 21.0177 15.0783 20.8072 15.8915C20.7046 16.2904 20.6286 16.7119 20.3966 17.0493C20.1646 17.3866 19.7159 17.6287 19.334 17.4697C18.7704 17.2349 18.6873 16.2792 18.0077 16.231C17.2613 16.1787 17.2706 16.9488 17.4882 17.5056C17.8701 18.4767 18.3896 19.4427 18.2191 20.4722C18.0498 20.4722 17.7695 20.4661 17.6032 20.462C17.7325 20.2415 17.4861 19.979 17.2408 19.9041C16.9954 19.8293 16.709 19.8303 16.5222 19.6519C16.3353 19.4735 16.3343 19.1976 16.3538 18.9505C16.3964 18.4223 16.5257 17.9047 16.7367 17.4184C16.8712 17.1108 17.0447 16.7775 16.942 16.4555C16.8804 16.3096 16.8062 16.1692 16.7203 16.0361C16.5068 15.6259 16.5571 15.1132 16.7398 14.6897C16.8178 14.5092 16.8743 14.339 16.939 14.177C17.0206 13.9467 17.1388 13.731 17.289 13.5381C17.5241 13.2459 17.7541 12.8059 17.4944 12.5342C17.4287 12.4655 17.5601 12.4183 17.518 12.3291C17.5105 12.3139 17.5053 12.2976 17.5026 12.2809C17.4905 12.1729 17.5166 12.064 17.5765 11.9733C17.5886 11.9497 17.602 11.9267 17.6165 11.9046C17.6283 11.8811 17.6417 11.8585 17.6566 11.8369C17.8839 11.4577 18.186 11.1287 18.5446 10.8699C18.7674 10.7089 19.0281 10.554 19.1164 10.2936C19.2191 9.98592 19.0384 9.6588 19.023 9.33373C18.987 8.60258 19.7796 8.09293 20.5064 8.00064C21.2333 7.90835 21.9868 8.06114 22.6952 7.87348C23.7002 7.60891 24.4065 6.72292 25.3192 6.22557C25.8184 5.95891 26.3721 5.80975 26.9379 5.78949C27.5037 5.76923 28.0667 5.8784 28.5838 6.10867C29.6494 6.59474 30.4533 7.57712 31.5661 7.94629C31.9603 8.07755 32.3874 8.12985 32.7426 8.34724C33.1532 8.59951 33.4027 9.04045 33.6162 9.47525C33.9417 10.1346 34.0074 10.7971 34.2322 11.4954C34.4108 12.0491 34.6582 12.7731 34.6788 13.411C34.6903 13.6014 34.6734 13.7926 34.6285 13.978Z" fill="#896363"/>
<g opacity="0.1">
<path opacity="0.1" d="M17.6279 12.6931C17.6443 12.6275 17.6459 12.559 17.6326 12.4927C17.6193 12.4263 17.5914 12.3638 17.5509 12.3096C17.5776 12.3896 17.4616 12.4357 17.5252 12.5024C17.5759 12.5556 17.6114 12.6215 17.6279 12.6931Z" fill="black"/>
<path opacity="0.1" d="M17.5478 12.0747C17.5357 12.1105 17.5285 12.1477 17.5262 12.1855C17.5457 12.1526 17.5724 12.1188 17.5478 12.0747Z" fill="black"/>
<path opacity="0.1" d="M34.3493 14.261C33.8083 14.7737 32.8505 14.5615 32.1123 14.4415C31.4731 14.3387 30.8488 14.1586 30.2531 13.9052C29.7326 13.6837 29.1105 13.413 28.6424 13.7309C28.4638 13.8519 28.3406 14.0457 28.1527 14.1523C27.9648 14.259 27.7277 14.2661 27.507 14.2682C26.7883 14.2682 26.0697 14.2774 25.3675 14.1144C24.3224 13.8703 23.2404 13.2581 22.2456 13.6611C21.4674 13.978 21.0455 14.824 20.835 15.6372C20.7324 16.0361 20.6574 16.4575 20.4244 16.796C20.1913 17.1344 19.7427 17.3743 19.3618 17.2164C18.7982 16.9805 18.7151 16.0258 18.0354 15.9776C17.5047 15.9397 17.3569 16.3191 17.3928 16.7406C17.4236 16.4186 17.5981 16.1704 18.0354 16.2012C18.7151 16.2494 18.7982 17.2051 19.3618 17.4399C19.7427 17.5989 20.1924 17.36 20.4244 17.0195C20.6564 16.679 20.7324 16.2596 20.835 15.8618C21.0455 15.0486 21.4674 14.2015 22.2456 13.8857C23.2404 13.4817 24.3224 14.0908 25.3675 14.339C26.0656 14.502 26.7904 14.4969 27.507 14.4917C27.7277 14.4917 27.9607 14.4856 28.1527 14.3769C28.3447 14.2682 28.4607 14.0764 28.6424 13.9544C29.1105 13.6375 29.7326 13.9083 30.2531 14.1287C30.8489 14.382 31.4732 14.5624 32.1123 14.6661C32.8505 14.785 33.8083 14.9993 34.3493 14.4846C34.6429 14.2046 34.7312 13.7996 34.7117 13.3566C34.6953 13.7083 34.5926 14.0272 34.3493 14.261Z" fill="black"/>
<path opacity="0.1" d="M19.059 9.14807C19.0534 9.19914 19.0513 9.25054 19.0529 9.30189C19.0631 9.51518 19.1442 9.72848 19.1699 9.93665C19.2079 9.68131 19.0898 9.41469 19.059 9.14807Z" fill="black"/>
<path opacity="0.1" d="M16.9729 16.4237C16.9814 16.4543 16.9879 16.4855 16.9924 16.517C17.0091 16.4112 17.0024 16.3031 16.9729 16.2001C16.9117 16.0537 16.8375 15.9129 16.7512 15.7797C16.674 15.628 16.6283 15.4623 16.6167 15.2926C16.5958 15.5376 16.6423 15.7837 16.7512 16.0043C16.8377 16.1371 16.9119 16.2774 16.9729 16.4237Z" fill="black"/>
<path opacity="0.1" d="M18.247 20.2159L17.6464 20.2066C17.6604 20.2429 17.666 20.2818 17.6628 20.3205C17.6596 20.3592 17.6477 20.3967 17.6279 20.4302C17.7973 20.4302 18.0786 20.4363 18.2439 20.4404C18.2726 20.2649 18.2826 20.0869 18.2737 19.9092C18.2713 20.0119 18.2624 20.1143 18.247 20.2159Z" fill="black"/>
<path opacity="0.1" d="M17.2645 19.6488C17.0191 19.5749 16.7337 19.5739 16.551 19.3944C16.4434 19.2769 16.3828 19.124 16.3806 18.9648C16.3652 19.2006 16.3806 19.4549 16.551 19.619C16.7337 19.7985 17.0191 19.7995 17.2645 19.8733C17.3443 19.8965 17.4186 19.9358 17.4826 19.9887C17.5467 20.0416 17.5993 20.107 17.6372 20.181C17.7408 19.9687 17.5027 19.7195 17.2645 19.6488Z" fill="black"/>
</g>
<path opacity="0.1" d="M35.9417 65.7513C35.8267 65.6846 35.7096 65.6221 35.5906 65.5626C35.3452 65.439 35.0937 65.3281 34.837 65.2303C33.6513 64.7791 32.3814 64.6151 31.094 64.6427C30.5807 64.8386 30.2471 64.9791 30.2471 64.9791L29.5941 65.176L29.4853 65.2088C29.4781 65.137 29.4699 65.0652 29.4627 64.9924C29.4555 64.9196 29.4473 64.8499 29.4391 64.7781C29.2092 62.6031 29.0285 60.3686 29.0285 60.3686V58.4387V58.2142L29.0162 52.528L28.9135 50.6535L28.8652 49.8239L28.856 49.666L28.8375 49.3419L28.8273 49.1491C28.8046 49.088 28.7854 49.0257 28.7698 48.9625C28.7626 48.9369 28.7554 48.9081 28.7492 48.8784C28.7236 48.7759 28.6959 48.6436 28.6671 48.5C28.4792 47.5566 28.2441 45.9661 28.2298 45.6431C28.2113 45.2124 27.8376 42.6364 27.8376 42.6364C27.7996 41.2182 26.6057 38.5479 26.3049 38.0444C26.0041 37.5409 25.6684 34.5159 25.7813 34.3528C25.8398 34.2656 25.8778 33.7498 25.9014 33.274C25.9014 33.2197 25.9066 33.1664 25.9086 33.1141C25.924 32.7418 25.9312 32.4311 25.9312 32.4311L27.1056 32.1993L27.4208 32.1378L27.4454 32.1327L27.4557 32.1532C27.4896 32.2158 27.5953 32.4157 27.7195 32.6782C27.7339 32.7059 27.7473 32.7357 27.7616 32.7654C27.7678 32.7798 27.775 32.7941 27.7822 32.8085C28.0121 33.3109 28.278 33.9724 28.2667 34.3528C28.2483 35.0255 29.0151 36.6498 29.0151 36.6498C29.089 37.0231 30.7152 40.7373 30.7152 40.7373C30.7152 40.7373 32.0426 44.3777 31.9677 44.9755C31.8927 45.5734 32.6031 49.5306 32.6031 49.5306L33.332 53.6006C33.6862 54.4025 34.1533 56.2504 34.1533 56.2504L34.3309 57.2984L34.3648 57.4984L34.8381 60.2948L35.0701 61.6648C35.0701 61.6648 35.1676 62.3929 35.3154 63.203C35.3277 63.2758 35.3421 63.3496 35.3565 63.4235C35.4476 63.9568 35.5769 64.4828 35.7435 64.9976C35.8261 65.2442 35.8923 65.4959 35.9417 65.7513Z" fill="black"/>
<path d="M36.0689 65.8241C36.0268 65.7994 35.9847 65.7748 35.9416 65.7512C35.8266 65.6846 35.7096 65.622 35.5905 65.5626C35.3451 65.439 35.0936 65.3281 34.8369 65.2303C33.6512 64.7791 32.3813 64.615 31.0939 64.6427C30.5806 64.8386 30.247 64.9791 30.247 64.9791L29.5941 65.176C29.5858 65.1042 29.5787 65.0324 29.5704 64.9596C29.5622 64.8868 29.5561 64.8283 29.5499 64.7627C29.3199 62.5928 29.1393 60.3686 29.1393 60.3686V58.4203V58.1957L29.1269 52.5239L29.0243 50.7334L29.0038 50.3622L28.9894 50.111L28.9709 49.7787L28.9524 49.4414L28.9391 49.1983V49.145C28.9391 49.1399 28.9391 49.1337 28.9319 49.1276C28.9124 49.0722 28.8888 48.9881 28.8631 48.8815L28.8508 48.8302C28.8457 48.8066 28.8395 48.781 28.8344 48.7553C28.6414 47.8806 28.358 45.9948 28.3426 45.641C28.3241 45.2103 27.9505 42.6344 27.9505 42.6344C27.9125 41.2162 26.7185 38.5459 26.4177 38.0424C26.1169 37.5389 25.7823 34.5138 25.8942 34.3507C25.9588 34.2482 25.9968 33.6257 26.0215 33.112C26.0215 33.071 26.0215 33.031 26.0215 32.993C26.0348 32.6762 26.0399 32.429 26.0399 32.429L27.1322 32.2137L27.4094 32.1593L27.4525 32.1511L27.5552 32.1306C27.5552 32.1306 27.6897 32.3788 27.8509 32.7203L27.8714 32.7633C28.1065 33.2699 28.3847 33.959 28.3765 34.3507C28.358 35.0234 29.1249 36.6478 29.1249 36.6478C29.1988 37.021 30.825 40.7352 30.825 40.7352C30.825 40.7352 32.1524 44.3756 32.0774 44.9734C32.0025 45.5713 32.7129 49.5285 32.7129 49.5285L33.4418 53.5986C33.796 54.4005 34.2631 56.2483 34.2631 56.2483L34.4284 57.2246L34.4622 57.4225L34.8349 59.6293L35.1788 61.6627C35.1788 61.6627 35.2815 62.3877 35.4231 63.2009C35.4365 63.2748 35.4498 63.3486 35.4642 63.4235C35.5551 63.9591 35.6845 64.4876 35.8512 65.0047C35.9422 65.2726 36.015 65.5463 36.0689 65.8241Z" fill="#63667E"/>
<path d="M35.143 13.1576C35.143 13.1576 34.7508 13.6622 34.3966 13.6622C34.0424 13.6622 32.6637 13.6058 31.9451 13.3822C31.2264 13.1587 27.7031 12.9895 27.7031 12.9895C27.7031 12.9895 22.7138 13.0079 22.5454 12.8397C22.3771 12.6716 19.443 11.7753 19.1443 11.8317C19.0816 11.844 18.9287 11.8707 18.7244 11.9045L18.4903 11.9425C18.1361 11.9989 17.6937 12.0645 17.2892 12.1127C16.7892 12.1711 16.3498 12.2009 16.2102 12.1496V11.7199C16.2102 11.7199 16.7892 10.8791 16.8262 10.6381C16.8631 10.3971 17.3497 6.90336 18.6207 5.65333C19.1457 4.65075 19.9954 3.8555 21.0312 3.39733C22.7507 2.64977 24.4703 2.01603 24.4703 2.01603L24.7711 1.97297L25.7413 1.8294C25.7707 1.80008 25.8027 1.77332 25.8367 1.74942C26.1057 1.54432 26.9208 1.09825 27.9834 2.05705L28.1712 2.35649C28.1712 2.35649 31.441 3.12148 32.9542 5.79074C34.4674 8.46001 34.5434 11.0739 34.6553 12.2686C34.6553 12.2686 34.5804 12.6049 34.7303 12.7351C34.7845 12.783 34.8363 12.8337 34.8853 12.8869C34.8986 12.9002 34.912 12.9136 34.9243 12.9279C34.9674 12.971 35.0074 13.0161 35.0403 13.053C35.0442 13.0559 35.0477 13.0594 35.0506 13.0633C35.0586 13.073 35.0671 13.0822 35.0762 13.091L35.143 13.1576Z" fill="#FED253"/>
<path opacity="0.05" d="M35.1429 13.1577C35.1429 13.1577 34.7507 13.6622 34.3965 13.6622C34.0424 13.6622 32.6636 13.6058 31.945 13.3822C31.2264 13.1587 27.703 12.9895 27.703 12.9895C27.703 12.9895 22.7137 13.008 22.5454 12.8398C22.377 12.6716 19.4429 11.7754 19.1442 11.8318C19.0816 11.8441 18.9286 11.8707 18.7243 11.9046L18.6709 11.5764L18.6576 11.4954C18.6576 11.4954 24.3204 10.2823 28.0952 10.9181C31.8701 11.5539 34.6553 12.2614 34.6553 12.2614C34.6553 12.2614 34.5803 12.5978 34.7302 12.728C34.7845 12.7759 34.8362 12.8265 34.8852 12.8798C34.8986 12.8931 34.9119 12.9064 34.9242 12.9208C34.9673 12.9639 35.0074 13.009 35.0402 13.0459C35.0441 13.0488 35.0476 13.0522 35.0505 13.0562C35.0585 13.0658 35.0671 13.0751 35.0762 13.0838L35.1429 13.1577Z" fill="black"/>
<path opacity="0.1" d="M34.6286 13.978C33.9295 14.0323 32.6411 13.8621 32.0775 13.7791C31.9173 13.7555 31.7603 13.7268 31.6022 13.6919C30.9975 13.5606 29.1383 13.1925 28.009 13.3627C26.6447 13.5678 22.7949 13.1945 22.7949 13.1945C22.7949 13.1945 20.4214 12.7095 19.4676 12.3178C19.1176 12.1732 18.5324 12.1281 17.9503 12.1999C17.8019 12.2183 17.6545 12.2447 17.5089 12.2788C16.7143 12.4665 16.0439 12.8941 16.1599 13.6232C16.1155 13.57 16.0744 13.5142 16.0367 13.456C15.9864 12.7895 16.1938 12.3926 16.4812 12.1588L16.549 12.1311C16.9001 12.0315 17.2575 11.9551 17.6187 11.9025C17.6752 11.8932 17.7337 11.885 17.7932 11.8779C18.8147 11.7404 20.292 11.7097 21.5383 12.3362C21.5383 12.3362 22.6963 12.8787 23.4817 12.8787C24.267 12.8787 30.6577 12.9351 32.1535 13.3637C32.4512 13.4497 32.7549 13.5138 33.062 13.5555C33.6073 13.6257 34.1615 13.5735 34.6841 13.4027C34.6947 13.5962 34.6761 13.7901 34.6286 13.978Z" fill="black"/>
<path opacity="0.1" d="M35.143 13.1576C35.143 13.1576 34.7508 13.6621 34.3966 13.6621C34.0424 13.6621 32.6637 13.6057 31.9451 13.3822C31.2264 13.1586 27.7031 12.9894 27.7031 12.9894C27.7031 12.9894 22.7138 13.0079 22.5454 12.8397C22.3771 12.6715 19.443 11.7753 19.1443 11.8317C19.0816 11.844 18.9287 11.8707 18.7244 11.9045L18.4903 11.9424C18.0838 11.9404 17.6791 11.9977 17.2892 12.1127C16.7892 12.1711 16.3498 12.2009 16.2102 12.1496V12.0645C16.3178 12.0021 16.4301 11.9479 16.5459 11.9025C17.2387 11.7087 17.952 11.5978 18.671 11.5723C19.5672 11.5394 20.6154 11.644 21.5363 12.1075C21.5363 12.1075 22.6943 12.65 23.4796 12.65C24.265 12.65 30.6556 12.7054 32.1514 13.1351C32.4493 13.2202 32.7529 13.2839 33.06 13.3258C33.7336 13.4106 34.4177 13.3125 35.0403 13.0417C35.0442 13.0446 35.0477 13.0481 35.0506 13.052C35.0586 13.0617 35.0672 13.0709 35.0762 13.0797L35.143 13.1576Z" fill="black"/>
<path d="M16.1742 13.6057C16.1742 13.6057 14.9218 12.6531 16.5479 12.0183C16.5479 12.0183 19.3886 11.1416 21.5383 12.2234C21.5383 12.2234 22.6963 12.7638 23.4817 12.7638C24.267 12.7638 30.6577 12.8202 32.1534 13.2499C32.4513 13.3351 32.7549 13.3989 33.062 13.4406C33.8578 13.537 34.6639 13.384 35.3688 13.0028C35.4714 12.9464 35.5638 12.9176 35.5915 12.9505C35.685 13.0633 35.611 13.7165 34.7887 13.8467C34.1471 13.9493 32.6893 13.7554 32.0764 13.6662C31.9173 13.6426 31.7592 13.6129 31.6021 13.5791C30.9975 13.4478 29.1383 13.0797 28.0039 13.2499C26.6405 13.455 22.7897 13.0817 22.7897 13.0817C22.7897 13.0817 20.4172 12.5967 19.4635 12.2039C18.5098 11.8112 15.819 12.1496 16.1742 13.6057Z" fill="#FED253"/>
<path opacity="0.1" d="M26.733 3.59629C26.6303 3.44862 25.3111 2.39343 24.7732 1.96684L25.7433 1.82327C25.7728 1.79395 25.8048 1.76719 25.8388 1.74329C26.5441 2.48264 26.733 3.59629 26.733 3.59629Z" fill="black"/>
<path opacity="0.1" d="M22.4541 9.25578L22.0239 9.89054L23.6686 9.83517L23.7055 9.12555L22.4541 9.25578Z" fill="black"/>
<path opacity="0.1" d="M32.4891 10.0218L32.676 10.6001L33.7231 10.7683L33.2745 10.0772L32.4891 10.0218Z" fill="black"/>
<path opacity="0.1" d="M14.5111 29.4378C14.623 29.6244 18.3044 34.4625 19.2766 34.3282C20.2488 34.1939 14.5111 29.4378 14.5111 29.4378Z" fill="black"/>
<path opacity="0.1" d="M26.8458 33.8596C26.8458 33.8596 27.7431 34.7189 27.6117 35.0542C27.4803 35.3895 26.8458 33.8596 26.8458 33.8596Z" fill="black"/>
<path opacity="0.1" d="M17.053 39.759C17.053 39.759 16.2676 43.4363 16.6793 43.5532C17.091 43.6701 17.053 39.759 17.053 39.759Z" fill="black"/>
<path opacity="0.1" d="M27.1445 54.0395C27.2749 54.4128 28.359 56.84 28.6023 56.9703C28.8456 57.1005 27.1445 54.0395 27.1445 54.0395Z" fill="black"/>
<path opacity="0.1" d="M39.741 44.071C39.703 44.2013 38.7688 44.9673 38.9742 45.2472C39.1795 45.5272 39.741 44.071 39.741 44.071Z" fill="black"/>
<path opacity="0.1" d="M32.4891 50.8842C32.4706 50.9785 32.2838 52.9351 32.639 53.3114C32.9942 53.6878 32.4891 50.8842 32.4891 50.8842Z" fill="black"/>
<path opacity="0.1" d="M42.0653 61.0486C41.7943 61.1993 41.514 61.3449 41.2287 61.4844C40.9207 61.6341 40.6127 61.7766 40.2985 61.911C40.1733 61.9653 40.0481 62.0186 39.9238 62.0699C39.7349 62.1478 39.5481 62.2227 39.3633 62.2945C38.8017 62.5139 38.2607 62.7047 37.7792 62.8657C37.5924 62.9282 37.4138 62.9856 37.2475 63.039C36.4097 63.3046 35.8533 63.4491 35.8533 63.4491C35.7262 63.422 35.5961 63.4113 35.4663 63.4174C35.4304 63.4174 35.3934 63.4174 35.3554 63.4174C35.1816 63.4299 35.0085 63.4519 34.837 63.483C33.6903 63.6881 32.0703 64.2634 31.094 64.6397C30.5807 64.8356 30.247 64.9761 30.247 64.9761L29.5941 65.1729L29.4853 65.2058C28.7779 65.4211 27.7831 65.7267 27.4249 65.8538C26.8458 66.0589 21.8185 67.1039 21.8185 67.1039C21.3593 67.2291 20.8901 67.3149 20.4162 67.3602C19.2484 67.4673 18.0746 67.494 16.9031 67.4402C15.7266 67.5161 13.8233 67.2577 12.7156 67.0834L12.539 67.0557C12.1109 66.986 11.8389 66.9357 11.8389 66.9357L11.9826 66.7378L14.93 62.676L14.9474 62.6513L17.6936 58.8684L17.7963 58.731L18.0458 58.3875C18.0458 58.3875 18.1956 58.1824 18.7726 58.1691C18.8403 58.1691 18.9143 58.1691 18.9954 58.1691C19.48 58.208 19.9581 58.3054 20.4193 58.4593L20.5527 58.4993C22.5413 59.0684 25.6149 58.9259 25.6149 58.9259C25.6149 58.9259 27.5275 58.6182 29.0305 58.4336L29.1424 58.4193C29.6335 58.35 30.128 58.3072 30.6238 58.2911C31.5395 58.3096 33.5209 57.8245 33.5209 57.8245C33.9469 57.7332 34.1266 57.6563 34.3668 57.4851C34.3986 57.4625 34.4325 57.4379 34.4695 57.4112C34.5721 57.3343 34.6902 57.24 34.8421 57.1231C35.1193 56.9108 35.5084 56.6227 36.1202 56.2186C36.1736 56.1838 36.2301 56.1489 36.2907 56.1161C36.3512 56.0833 36.4282 56.0392 36.5021 56.0023C37.0947 55.722 37.7194 55.5153 38.3624 55.387C38.8957 55.2725 39.4369 55.1981 39.9813 55.1645H40.0624C41.6023 55.0824 43.1751 55.346 44.0949 56.2104C44.2558 56.3624 44.3959 56.5347 44.5117 56.7232C44.568 56.8127 44.618 56.9058 44.6616 57.0021C44.7455 57.1857 44.8079 57.3784 44.8475 57.5764C44.855 57.6133 44.8611 57.6502 44.8659 57.6871C44.8659 57.6984 44.8659 57.7086 44.8659 57.7199C44.8659 57.7497 44.8721 57.7794 44.8741 57.8091C44.9563 59.0366 43.6812 60.1461 42.0653 61.0486Z" fill="black"/>
<path d="M11.8389 66.7152C11.8389 66.7152 15.1651 67.3305 16.9031 67.2187C16.9031 67.2187 20.099 67.3869 21.8185 66.8834C21.8185 66.8834 26.8489 65.8374 27.4249 65.6323C28.0008 65.4272 30.247 64.7545 30.247 64.7545C30.247 64.7545 34.6204 62.9251 35.8533 63.2235C35.8533 63.2235 45.5343 60.7224 44.8423 57.3436C44.1504 53.9647 38.04 54.7307 36.1161 55.9992C34.1923 57.2677 34.4736 57.4 33.5188 57.6051C33.5188 57.6051 31.5375 58.0901 30.6217 58.0716C29.706 58.0532 25.6129 58.7064 25.6129 58.7064C25.6129 58.7064 22.3986 58.8561 20.4182 58.2398C18.4379 57.6235 18.0447 58.165 18.0447 58.165L11.8389 66.7152Z" fill="#FFA2A2"/>
<path opacity="0.1" d="M19.0518 57.9455C19.0523 57.9496 19.0523 57.9538 19.0518 57.9578C19.0447 58.0341 19.0249 58.1086 18.9933 58.1783C18.5991 59.1443 16.3611 61.75 16.3611 61.75C16.2591 62.0595 16.1359 62.3617 15.9925 62.6544C15.6842 63.2802 15.329 63.8817 14.93 64.4541C14.3386 65.3104 13.6929 66.128 12.9969 66.9019H12.9918C12.9032 66.9675 12.811 67.0281 12.7156 67.0834C12.4744 67.2269 12.112 67.4043 11.7701 67.4259C11.7119 67.4293 11.6535 67.4276 11.5956 67.4208C11.6315 67.4208 11.6664 67.4125 11.6982 67.4064L11.573 67.3695L11.4015 67.3162C11.1141 67.2259 10.829 67.1271 10.5464 67.0198L10.3749 66.9542C10.1012 66.8489 9.83323 66.7357 9.5711 66.6147L9.39966 66.5368C9.1259 66.4097 8.85795 66.2753 8.59582 66.1338C8.50137 66.0846 8.40795 66.0313 8.31556 65.981C8.03632 65.8251 7.76256 65.6618 7.49427 65.4908C7.20956 65.3097 6.931 65.1207 6.65861 64.9238C6.45329 64.5433 6.2839 64.2059 6.1915 64.0244C6.02314 63.6871 6.00877 63.2041 6.0293 62.8544C6.0293 62.8185 6.0293 62.7847 6.03546 62.7518C6.05291 62.5324 6.0796 62.3817 6.0796 62.3817C5.92748 62.1785 5.79025 61.9647 5.66896 61.7418C5.59928 61.6311 5.55965 61.5042 5.55398 61.3736C5.55862 61.3212 5.55375 61.2684 5.53961 61.2178C5.46056 60.8937 5.12075 60.3369 4.80661 59.9872C4.57254 59.7298 4.55817 58.7679 4.58075 58.086C4.5941 57.6758 4.61976 57.3744 4.61976 57.3744C4.57376 57.3447 4.53934 57.3002 4.52224 57.2482C4.43969 57.0238 4.38387 56.7904 4.35593 56.553C4.35593 56.5191 4.34669 56.4853 4.34155 56.4504C4.27585 55.9797 4.24608 55.507 4.24608 55.507C3.48639 54.9543 3.12502 54.0919 2.95666 53.3228L2.9351 53.2202C2.84263 52.7475 2.80338 52.266 2.81806 51.7846C2.81806 51.7384 2.81806 51.7036 2.81806 51.682C2.81806 51.6605 2.81806 51.6564 2.81806 51.6564C2.81806 51.6564 2.91867 49.4342 3.19996 48.5667C3.21126 48.5298 3.22357 48.4959 3.23589 48.4642C3.25662 48.4097 3.28348 48.3577 3.31597 48.3093C3.41863 48.1729 3.49152 47.9155 3.55209 47.611C3.59418 47.3997 3.62909 47.1649 3.65475 46.9311C3.67836 46.7363 3.69684 46.5425 3.71121 46.363C3.75125 45.8831 3.76357 45.5088 3.76357 45.5088L3.57365 44.5736C3.52129 44.3182 3.48125 44.0609 3.45354 43.8035C3.45354 43.7696 3.44532 43.7358 3.44122 43.7009C3.3932 43.2256 3.38462 42.7471 3.41555 42.2704C3.41555 42.2355 3.41555 42.2017 3.42171 42.1679C3.50187 41.082 3.78606 40.021 4.25942 39.0402L4.31075 38.9377C4.37919 38.8009 4.45106 38.6666 4.52634 38.5347C4.58075 38.4372 4.63824 38.3409 4.69779 38.2455C4.85563 37.9901 5.02698 37.7433 5.21109 37.5061C5.23778 37.4713 5.2655 37.4374 5.29322 37.4036C5.61356 37.0069 5.96957 36.6403 6.35679 36.3084C7.39366 35.4183 8.34533 35.0317 9.20973 35.002C12.9897 34.8687 15.1097 41.5464 15.4525 42.7165C15.4854 42.8293 15.5018 42.8908 15.5018 42.8908C15.5018 42.8908 17.0335 44.4218 16.5849 45.0935C16.4979 45.2413 16.445 45.4067 16.4299 45.5775C16.3067 46.4809 16.6598 47.9689 16.6598 47.9689C16.6598 47.9689 16.7851 48.379 17.1506 49.3614L17.2584 49.6486C17.4873 50.2638 17.5407 51.2965 17.4093 52.2214C17.283 53.1074 16.9863 53.8909 16.511 54.0919C15.5388 54.502 15.8006 54.9122 16.0244 55.2496C16.1574 55.4914 16.2683 55.7447 16.356 56.0064C16.4966 56.3848 16.627 56.7827 16.6763 56.9375C16.6906 56.9806 16.6978 57.0042 16.6978 57.0042C16.834 56.9515 16.9755 56.9137 17.1198 56.8914C17.3035 56.8657 17.4852 56.8842 17.5201 57.0411C17.5386 57.1252 17.6444 57.2246 17.7932 57.3241C18.2347 57.6276 19.0518 57.9455 19.0518 57.9455Z" fill="black"/>
<path d="M18.828 57.9455C18.8217 58.0235 18.8019 58.0998 18.7695 58.1711C18.3773 59.1381 16.1372 61.7499 16.1372 61.7499C16.0348 62.0593 15.9116 62.3615 15.7687 62.6544C15.5209 63.1597 15.2408 63.6485 14.9299 64.1177C14.2864 65.0874 13.5734 66.0093 12.7966 66.8762L12.773 66.9018C12.773 66.9018 12.6827 66.9705 12.539 67.0587C12.2822 67.2225 11.9992 67.3411 11.7023 67.4094L11.577 67.3725L11.4056 67.3192C11.1181 67.229 10.8331 67.1302 10.5504 67.0228L10.379 66.9572C10.1052 66.8519 9.83727 66.7388 9.57514 66.6178L9.4037 66.5399C9.12994 66.4127 8.86199 66.2784 8.59986 66.1368C8.50542 66.0876 8.41199 66.0343 8.3196 65.9841C8.04036 65.8282 7.7666 65.6648 7.49831 65.4939C7.2136 65.3127 6.93505 65.1237 6.66265 64.9268C6.53672 64.8366 6.41216 64.7439 6.28897 64.6489C6.15037 64.3864 6.0395 64.1649 5.97072 64.0275C5.80235 63.6901 5.78798 63.2071 5.80851 62.8574C5.80851 62.8215 5.80851 62.7877 5.81467 62.7549C5.83213 62.5354 5.85882 62.3847 5.85882 62.3847C5.85882 62.3847 5.77566 62.2729 5.67505 62.1212C5.61859 62.0371 5.55802 61.9396 5.50361 61.8433C5.40095 61.6628 5.32087 61.4802 5.33627 61.3767C5.33835 61.359 5.33835 61.3411 5.33627 61.3233C5.33473 61.2887 5.32957 61.2544 5.32087 61.2208C5.24183 60.8968 4.90099 60.3399 4.58685 59.9903C4.35278 59.7329 4.33841 58.771 4.35997 58.0891C4.35997 58.0542 4.35997 58.0204 4.35997 57.9865C4.37434 57.6327 4.3959 57.3774 4.3959 57.3774C4.27989 57.3271 4.19058 56.9549 4.13309 56.557L4.11769 56.4545C4.05198 55.9838 4.02221 55.5111 4.02221 55.5111C3.26252 54.9583 2.90116 54.0959 2.73382 53.3268C2.61724 52.7882 2.57237 52.2365 2.60036 51.6861C2.60036 51.6697 2.60036 51.6605 2.60036 51.6605C2.60036 51.6605 2.68865 49.427 2.96994 48.5585C2.98123 48.5215 2.99355 48.4877 3.00587 48.4559C3.0305 48.4027 3.06116 48.3525 3.09724 48.3062C3.25328 48.0888 3.35697 47.5658 3.42473 47.0305L3.43705 46.928C3.52225 46.2102 3.54587 45.5057 3.54587 45.5057L3.35492 44.5705C3.3029 44.3141 3.26286 44.0574 3.2348 43.8003C3.22967 43.7665 3.22659 43.7316 3.22248 43.6978C3.17448 43.2225 3.1659 42.744 3.19682 42.2673C3.19682 42.2324 3.19682 42.1986 3.20401 42.1647C3.28368 41.0788 3.56789 40.0177 4.04172 39.0371C4.05814 39.0022 4.07457 38.9684 4.09305 38.9345C4.22504 38.6682 4.37173 38.4094 4.53244 38.1593C4.58787 38.0721 4.64434 37.986 4.70388 37.9009C4.7973 37.7655 4.89483 37.6322 4.99647 37.503L5.07859 37.4005C5.3962 37.0053 5.74909 36.6397 6.13292 36.3083C7.26219 35.3413 8.2888 34.9681 9.21275 35.0019C12.8521 35.1321 14.895 41.57 15.2307 42.7164C15.2636 42.8292 15.28 42.8908 15.28 42.8908C15.28 42.8908 16.8127 44.4218 16.3641 45.0934C16.2771 45.2413 16.2242 45.4066 16.2091 45.5775C16.0849 46.4809 16.4391 47.9688 16.4391 47.9688C16.4391 47.9688 16.5643 48.379 16.9298 49.3614C16.9626 49.4527 16.9986 49.548 17.0324 49.6485C17.2614 50.2638 17.3148 51.2964 17.1833 52.2214C17.0571 53.1084 16.7614 53.8908 16.2851 54.0918C15.3139 54.502 15.5746 54.9122 15.7995 55.2496C15.9325 55.4914 16.0434 55.7447 16.1311 56.0064C16.3087 56.4893 16.4719 57.0041 16.4719 57.0041C16.5391 56.9782 16.6076 56.956 16.6772 56.9375C16.82 56.8906 16.9713 56.8748 17.1207 56.8913C17.1621 56.8945 17.2013 56.9107 17.2329 56.9376C17.2644 56.9645 17.2866 57.0007 17.2963 57.041C17.324 57.1641 17.5365 57.3169 17.7942 57.4615C18.1288 57.6434 18.474 57.805 18.828 57.9455Z" fill="#CED7E7"/>
<path opacity="0.1" d="M5.3158 48.0847C5.671 48.0662 9.48383 46.5916 10.2692 47.0951C11.0545 47.5986 15.9155 50.8657 15.9155 50.8657C15.9155 50.8657 12.8696 46.89 10.2158 45.9569C7.56202 45.0237 5.3158 48.0847 5.3158 48.0847Z" fill="black"/>
<path opacity="0.1" d="M10.7969 54.0959C10.7969 54.0959 14.6097 54.8609 15.1887 55.3839L10.7969 54.0959Z" fill="black"/>
<path opacity="0.1" d="M10.0628 59.7913C10.0074 59.8477 8.62556 62.9456 8.73643 62.9456C8.84731 62.9456 10.0259 61.0998 10.0259 61.0998L10.0628 59.7913Z" fill="black"/>
<path opacity="0.1" d="M12.6611 56.074C12.6611 56.074 11.5401 56.4668 11.6705 56.5037C11.8008 56.5406 12.6232 56.2422 12.6611 56.074Z" fill="black"/>
<path opacity="0.1" d="M11.54 60.7604C11.7269 61.1521 12.3244 62.3283 12.4558 62.1417C12.5872 61.955 11.54 60.7604 11.54 60.7604Z" fill="black"/>
<path opacity="0.1" d="M25.5349 29.7116L25.3748 29.9392C25.3748 29.9392 24.1028 29.044 23.5802 28.5959C23.0577 28.1478 21.8237 30.2007 20.8515 30.7606C19.8793 31.3205 18.2357 31.4703 18.2357 31.4703C18.2357 31.4703 16.9648 30.2007 17.0038 29.8295C17.0428 29.4583 16.4063 29.3445 16.3683 29.083C16.3303 28.8215 16.1065 28.075 15.8078 27.7017C15.6497 27.5048 15.6271 26.8885 15.6415 26.3522C15.7441 26.3317 15.8078 26.3204 15.8078 26.3204C15.9673 26.0308 16.169 25.7664 16.4063 25.5359C16.743 25.2375 17.2656 23.4081 17.2656 23.4081C17.5643 22.4001 18.1618 22.6985 18.1618 22.6985C18.1618 24.2295 19.7325 24.7894 20.5168 25.4242C21.3012 26.0589 22.5352 27.7017 23.5074 28.0381C24.305 28.3098 25.2382 29.3609 25.5349 29.7116Z" fill="black"/>
<path d="M25.5349 29.487L25.3748 29.7157C25.3748 29.7157 24.0977 28.8225 23.5751 28.3713C23.0526 27.9201 21.8186 29.9762 20.8464 30.5361C19.8742 31.096 18.2306 31.2467 18.2306 31.2467C18.2306 31.2467 16.9596 29.9762 16.9987 29.606C17.0377 29.2358 16.4012 29.1209 16.3632 28.8584C16.3252 28.5959 16.1014 27.8504 15.8027 27.4771C15.6446 27.2803 15.622 26.664 15.6363 26.1276L15.8027 26.0969C15.9622 25.8073 16.1639 25.5429 16.4012 25.3124C16.7379 25.013 17.2604 23.1846 17.2604 23.1846C17.5592 22.1766 18.1567 22.4739 18.1567 22.4739C18.1567 24.0049 19.7274 24.5659 20.5117 25.2006C21.296 25.8354 22.53 27.4771 23.5022 27.8135C24.305 28.0893 25.2382 29.1363 25.5349 29.487Z" fill="#CED7E7"/>
<path opacity="0.1" d="M25.6304 29.7906C25.6304 29.7906 24.5288 30.3874 23.6685 30.4438C23.5559 30.449 23.443 30.4425 23.3318 30.4243C23.3318 30.4243 24.2814 29.7157 25.1633 29.5711L25.6304 29.7906Z" fill="black"/>
<path opacity="0.1" d="M27.8734 32.8331C27.8734 32.8331 26.4844 32.2927 26.0255 33.1059C26.0409 32.7326 26.0471 32.4229 26.0471 32.4229L27.5613 32.1235C27.5613 32.1235 27.7071 32.3932 27.8775 32.7562C27.8734 32.8044 27.8734 32.8331 27.8734 32.8331Z" fill="black"/>
<path d="M23.3318 30.4243C23.3318 30.4243 24.9959 29.4265 25.7957 29.5106C26.6344 29.5977 28.2595 29.6593 28.2595 29.6593C28.2595 29.6593 27.699 30.9288 27.7739 31.1903C27.8489 31.4518 27.8674 32.7213 27.8674 32.7213C27.8674 32.7213 26.1858 32.0681 25.9055 33.2812C25.9055 33.2812 24.9898 31.9184 24.3728 31.5072C23.9634 31.2117 23.6107 30.8449 23.3318 30.4243Z" fill="#63667E"/>
<path opacity="0.1" d="M32.7325 31.5831C32.2469 31.5831 30.5273 30.4992 30.1536 29.7906C29.7799 29.082 29.2564 29.8644 28.7708 30.1269C28.4628 30.2951 27.2422 29.9434 26.5841 29.688C26.9178 29.4614 27.6569 28.8236 27.8735 28.6708C28.1343 28.4831 28.3971 25.4591 28.3971 25.4591C29.3313 24.974 30.3405 29.3794 30.3405 29.3794C30.3405 29.3794 32.098 29.9024 32.2469 30.2756C32.2756 30.3495 32.4081 30.4807 32.6072 30.6397C32.8126 31.1565 32.9255 31.5831 32.7325 31.5831Z" fill="black"/>
<path d="M32.7324 31.3584C32.2468 31.3584 30.5272 30.2756 30.1535 29.567C29.7798 28.8584 29.2563 29.6408 28.7707 29.9023C28.4627 30.0705 27.4843 29.7454 26.8263 29.4921C27.1599 29.2665 27.6568 28.602 27.8734 28.4482C28.1342 28.2616 28.397 25.2375 28.397 25.2375C29.3312 24.7525 30.3404 29.1578 30.3404 29.1578C30.3404 29.1578 32.0979 29.6808 32.2468 30.0541C32.2755 30.1279 32.408 30.2592 32.6071 30.4181C32.8124 30.9319 32.9254 31.3584 32.7324 31.3584Z" fill="#CED7E7"/>
<path d="M39.3735 64.0674L55.6258 50.5314C55.7879 50.3946 55.9946 50.3216 56.2068 50.3263L62.27 50.4853C62.27 50.4853 62.6899 50.7929 62.0739 51.4656L46.7425 64.0326C46.5768 64.1679 46.3712 64.245 46.1573 64.252L39.5275 64.4715C39.4799 64.473 39.433 64.4596 39.3934 64.4332C39.3537 64.4068 39.3233 64.3687 39.3064 64.3243C39.2894 64.2798 39.2868 64.2312 39.2988 64.1851C39.3108 64.1391 39.337 64.098 39.3735 64.0674Z" fill="#F9A826"/>
<path d="M47.2354 62.4021C47.2354 62.4021 50.7854 67.4802 54.7296 62.7569C58.6738 58.0337 57.5333 55.552 56.3373 55.4208C55.1413 55.2895 48.4118 60.4609 47.2354 62.4021Z" fill="#FFA2A2"/>
<path opacity="0.1" d="M71.179 5.60619C71.179 5.60619 75.7546 -3.26401 81.1627 1.31055C81.1627 1.31055 82.3433 1.74022 82.254 2.98718C82.254 2.98718 81.7992 2.73799 81.4379 3.69064C81.3052 4.02867 81.1329 4.34982 80.9246 4.64739C80.6477 5.04939 80.2479 5.3509 79.785 5.50672C79.785 5.50672 77.3581 7.32281 72.8626 5.92203C72.8626 5.92203 71.5917 6.10456 71.3863 5.94664L72.8636 4.86786C72.8636 4.86786 73.6141 5.98048 74.7115 6.10764C74.7115 6.10764 72.8636 4.94887 73.0751 4.69764C73.1182 4.64636 73.8841 4.16132 73.8841 4.16132C73.8841 4.16132 75.1971 6.09021 76.8992 6.23275C76.8992 6.23275 74.5144 5.14679 74.1726 3.97674L75.3706 3.30917C75.3706 3.30917 76.658 5.41648 78.5911 5.65234C78.5911 5.65234 76.1375 4.43102 75.6427 3.18099L76.9105 2.68672C76.9105 2.68672 78.2071 4.71712 79.8158 4.90273C79.8158 4.90273 77.1241 3.2056 77.2082 2.59238C77.2082 2.59238 78.4001 2.20885 78.7656 2.2591C78.7656 2.2591 79.7296 3.69474 80.6741 3.72038C80.6741 3.72038 78.9956 2.39549 79.1064 2.19142C79.1064 2.19142 80.7921 2.10426 81.673 2.51136C81.673 2.51136 80.4205 1.81508 79.1064 1.92788C79.1064 1.92788 79.7008 1.22954 80.4759 1.07572C80.4759 1.07572 79.5469 0.694255 78.6978 1.95352C78.6978 1.95352 77.3869 2.07349 77.2247 2.21911C77.2247 2.21911 77.8879 0.857302 78.704 0.277919C78.704 0.277919 77.4875 0.49224 76.8849 2.33806L75.5995 2.8067C75.5995 2.8067 76.3808 0.960873 77.0696 0.390719C77.0696 0.390719 75.8624 0.800902 75.2854 2.95436L74.1027 3.5963C74.1027 3.5963 74.654 1.95557 75.2833 1.15468C75.2833 1.15468 74.2454 1.77611 73.7701 3.79216L73.031 4.31207C73.031 4.31207 73.455 3.12049 73.6079 2.78926C73.7609 2.45804 73.6839 2.38933 73.6839 2.38933C73.1701 2.99612 72.8349 3.73344 72.7158 4.51921C72.7158 4.51921 71.2642 5.68823 71.179 5.60619Z" fill="#F9A826"/>
<path opacity="0.1" d="M90.1024 10.3499C90.1024 10.3499 92.17 6.34142 94.6133 8.40874C94.6133 8.40874 95.1472 8.60255 95.1061 9.16552C95.1061 9.16552 94.9008 9.05375 94.7376 9.48444C94.6784 9.63699 94.6012 9.78193 94.5076 9.91616C94.3827 10.0974 94.2027 10.2336 93.9943 10.3048C93.9943 10.3048 92.8968 11.1252 90.8652 10.4925C90.8652 10.4925 90.2913 10.5745 90.1989 10.5037L90.8662 10.0156C90.8662 10.0156 91.205 10.5191 91.7019 10.5755C91.7019 10.5755 90.8683 10.0525 90.9627 9.93872C90.9812 9.91616 91.3272 9.69671 91.3272 9.69671C91.3272 9.69671 91.9205 10.5683 92.6905 10.633C92.6905 10.633 91.6126 10.1418 91.4586 9.6075L92.0006 9.30704C92.0006 9.30704 92.5817 10.2597 93.4553 10.3663C93.4553 10.3663 92.3466 9.81464 92.1207 9.24961L92.6936 9.02606C92.6936 9.02606 93.2787 9.94385 94.0056 10.0279C94.0056 10.0279 92.7891 9.26089 92.8281 8.98402C92.8281 8.98402 93.366 8.81072 93.5313 8.83328C93.5313 8.83328 93.9666 9.48239 94.3936 9.49265C94.3936 9.49265 93.635 8.8948 93.6853 8.80251C93.6853 8.80251 94.447 8.76355 94.8433 8.9471C94.8433 8.9471 94.2776 8.63229 93.6853 8.68356C93.8487 8.49792 94.0627 8.36392 94.3012 8.29799C94.3012 8.29799 93.8814 8.12571 93.4974 8.69484C93.4974 8.69484 92.9051 8.74919 92.8322 8.81482C92.8322 8.81482 93.1319 8.19954 93.5005 7.93805C93.5005 7.93805 92.9502 8.03445 92.6792 8.86917L92.1043 9.08451C92.1043 9.08451 92.4564 8.25082 92.7685 7.9924C92.7685 7.9924 92.2224 8.17801 91.9616 9.15014L91.4278 9.43932C91.4278 9.43932 91.6762 8.69689 91.9606 8.33593C91.9606 8.33593 91.4914 8.61691 91.2779 9.52751L90.9432 9.76234C90.9432 9.76234 91.1352 9.22398 91.204 9.07426C91.2727 8.92454 91.2378 8.89378 91.2378 8.89378C91.0057 9.16892 90.8543 9.50291 90.8005 9.85873C90.8005 9.85873 90.1383 10.3868 90.1024 10.3499Z" fill="#F9A826"/>
<path opacity="0.1" d="M67.6987 15.0137C67.6987 15.0137 69.7663 11.0052 72.2158 13.0725C72.2158 13.0725 72.7486 13.2663 72.7086 13.8303C72.7086 13.8303 72.5033 13.7175 72.34 14.1482C72.2805 14.3006 72.2033 14.4455 72.1101 14.5799C71.9838 14.762 71.8019 14.8983 71.5916 14.9686C71.5916 14.9686 70.4952 15.7889 68.4635 15.1562C68.4635 15.1562 67.8897 15.2393 67.7973 15.1675L68.4646 14.6794C68.4646 14.6794 68.8034 15.1829 69.2992 15.2403C69.2992 15.2403 68.4656 14.7163 68.5601 14.6025C68.5796 14.5799 68.9255 14.3605 68.9255 14.3605C68.9255 14.3605 69.5189 15.2321 70.2878 15.2967C70.2878 15.2967 69.2109 14.8055 69.0559 14.2713L69.598 13.9718C69.598 13.9718 70.18 14.9234 71.0537 15.0301C71.0537 15.0301 69.945 14.4784 69.7191 13.9134L70.2919 13.6898C70.2919 13.6898 70.8781 14.6076 71.605 14.6917C71.605 14.6917 70.3884 13.9246 70.4264 13.6478C70.4264 13.6478 70.9654 13.4745 71.1307 13.497C71.1307 13.497 71.566 14.1461 71.993 14.1574C71.993 14.1574 71.2344 13.5586 71.2847 13.4663C71.2847 13.4663 72.0454 13.4273 72.4427 13.6109C72.4427 13.6109 71.876 13.296 71.2836 13.3473C71.447 13.1617 71.6611 13.0277 71.8996 12.9617C71.8996 12.9617 71.4808 12.7895 71.0968 13.3586C71.0968 13.3586 70.5045 13.4129 70.4316 13.4786C70.4316 13.4786 70.7303 12.8633 71.0999 12.6018C71.0999 12.6018 70.5496 12.6982 70.2786 13.5329L69.6965 13.7483C69.6965 13.7483 70.0497 12.9146 70.3607 12.6572C70.3607 12.6572 69.8156 12.8418 69.5548 13.8139L69.02 14.1031C69.02 14.1031 69.2694 13.3606 69.5538 12.9997C69.5538 12.9997 69.0847 13.2807 68.8701 14.1913L68.5354 14.4261C68.5354 14.4261 68.7274 13.8877 68.7962 13.738C68.865 13.5883 68.8311 13.5575 68.8311 13.5575C68.5984 13.8324 68.447 14.1665 68.3937 14.5225C68.3937 14.5225 67.7347 15.0506 67.6987 15.0137Z" fill="#F9A826"/>
</g>
<defs>
<clipPath id="clip0">
<rect width="110.087" height="80" fill="white"/>
</clipPath>
</defs>
</svg>
