<svg width="94" height="80" viewBox="0 0 94 80" fill="none" xmlns="http://www.w3.org/2000/svg">
<g clip-path="url(#clip0)">
<path d="M6.99668 73.4153C7.53359 73.6041 8.11005 73.6514 8.67053 73.5526C9.23102 73.4538 9.75663 73.2123 10.1967 72.8513C11.3175 71.9099 11.669 70.3596 11.9549 68.9238L12.8006 64.6766L11.03 65.8965C9.75662 66.7737 8.45462 67.6791 7.57302 68.9498C6.69142 70.2204 6.3068 71.955 7.01494 73.3299" fill="#E6E6E6"/>
<path d="M7.27018 78.8529C7.04733 77.2284 6.81804 75.5829 6.97473 73.9409C7.1136 72.4827 7.55825 71.0587 8.46349 69.8906C8.94399 69.2718 9.52867 68.7417 10.1912 68.324C10.364 68.215 10.523 68.4888 10.351 68.5975C9.20454 69.3224 8.31777 70.3929 7.81856 71.6546C7.26723 73.0576 7.1787 74.5871 7.27367 76.0775C7.33107 76.9788 7.45305 77.8742 7.57556 78.7686C7.58523 78.809 7.57919 78.8516 7.55866 78.8878C7.53814 78.9239 7.50465 78.9509 7.46498 78.9633C7.4245 78.9743 7.38136 78.9688 7.34492 78.948C7.30847 78.9273 7.28166 78.8931 7.2703 78.8527L7.27018 78.8529Z" fill="#F2F2F2"/>
<path d="M8.87427 76.2462C9.1045 76.5964 9.42101 76.8815 9.7933 77.0738C10.1656 77.2661 10.5811 77.3592 10.9998 77.3442C12.0761 77.2931 12.973 76.5418 13.7803 75.8283L16.1687 73.7184L14.5881 73.6427C13.4513 73.5882 12.2852 73.5371 11.2025 73.8882C10.1198 74.2394 9.12128 75.0832 8.92333 76.2045" fill="#E6E6E6"/>
<path d="M6.64021 79.7867C7.71311 77.8873 8.95749 75.7763 11.1812 75.1015C11.7994 74.9146 12.4477 74.8476 13.0911 74.9042C13.2939 74.9217 13.2432 75.2344 13.0408 75.217C11.9623 75.1274 10.8859 75.4124 9.99283 76.0238C9.13339 76.6092 8.46419 77.423 7.89788 78.2858C7.55093 78.8145 7.24018 79.3655 6.92943 79.9157C6.83013 80.0916 6.53975 79.9646 6.64021 79.7867Z" fill="#F2F2F2"/>
<path d="M92.4889 56.3382H33.338C33.1558 56.338 32.981 56.2655 32.8521 56.1365C32.7233 56.0075 32.6507 55.8327 32.6505 55.6504V0.68789C32.6508 0.505523 32.7233 0.330694 32.8521 0.201741C32.981 0.072789 33.1558 0.000238398 33.338 0H92.4889C92.6712 0.000238398 92.8459 0.072789 92.9748 0.201741C93.1037 0.330694 93.1762 0.505523 93.1765 0.68789V55.6502C93.1763 55.8326 93.1038 56.0075 92.9749 56.1364C92.846 56.2654 92.6712 56.3379 92.4889 56.3381V56.3382Z" fill="white"/>
<path d="M92.4889 56.3382H33.338C33.1558 56.338 32.981 56.2655 32.8521 56.1365C32.7233 56.0075 32.6507 55.8327 32.6505 55.6504V0.68789C32.6508 0.505523 32.7233 0.330694 32.8521 0.201741C32.981 0.072789 33.1558 0.000238398 33.338 0H92.4889C92.6712 0.000238398 92.8459 0.072789 92.9748 0.201741C93.1037 0.330694 93.1762 0.505523 93.1765 0.68789V55.6502C93.1763 55.8326 93.1038 56.0075 92.9749 56.1364C92.846 56.2654 92.6712 56.3379 92.4889 56.3381V56.3382ZM33.338 0.274614C33.2288 0.274851 33.1241 0.318375 33.0469 0.395658C32.9696 0.472941 32.9261 0.577692 32.9259 0.686987V55.6502C32.9261 55.7595 32.9696 55.8643 33.0469 55.9416C33.1241 56.0188 33.2288 56.0624 33.338 56.0626H92.4889C92.5982 56.0624 92.7029 56.0189 92.7802 55.9416C92.8574 55.8643 92.9009 55.7595 92.9011 55.6502V0.68789C92.9009 0.578595 92.8574 0.473844 92.7801 0.39656C92.7029 0.319277 92.5982 0.275754 92.4889 0.275517L33.338 0.274614Z" fill="#CACACA"/>
<path d="M61.2878 14.2822C61.1642 14.2824 61.0457 14.3317 60.9583 14.4192C60.871 14.5068 60.8219 14.6255 60.8219 14.7492C60.8219 14.8729 60.871 14.9916 60.9583 15.0791C61.0457 15.1667 61.1642 15.216 61.2878 15.2162H86.8994C87.023 15.216 87.1415 15.1667 87.2289 15.0791C87.3162 14.9916 87.3653 14.8729 87.3653 14.7492C87.3653 14.6255 87.3162 14.5068 87.2289 14.4192C87.1415 14.3317 87.023 14.2824 86.8994 14.2822H61.2878Z" fill="#E4E4E4"/>
<path d="M61.2879 17.0845C61.1643 17.0848 61.0459 17.1341 60.9586 17.2217C60.8713 17.3092 60.8223 17.4278 60.8223 17.5515C60.8223 17.6752 60.8713 17.7938 60.9586 17.8813C61.0459 17.9689 61.1643 18.0182 61.2879 18.0185H74.3631C74.4867 18.0182 74.6051 17.9689 74.6924 17.8813C74.7797 17.7938 74.8287 17.6752 74.8287 17.5515C74.8287 17.4278 74.7797 17.3092 74.6924 17.2217C74.6051 17.1341 74.4867 17.0848 74.3631 17.0845H61.2879Z" fill="#E4E4E4"/>
<path d="M38.9026 32.1544C38.779 32.1547 38.6606 32.2041 38.5733 32.2916C38.486 32.3792 38.437 32.4978 38.437 32.6214C38.437 32.7451 38.486 32.8637 38.5733 32.9513C38.6606 33.0388 38.779 33.0882 38.9026 33.0885H86.9243C87.0479 33.0882 87.1663 33.0388 87.2536 32.9513C87.3409 32.8637 87.3899 32.7451 87.3899 32.6214C87.3899 32.4978 87.3409 32.3792 87.2536 32.2916C87.1663 32.2041 87.0479 32.1547 86.9243 32.1544H38.9026Z" fill="#E4E4E4"/>
<path d="M38.9026 34.9568C38.779 34.9571 38.6606 35.0064 38.5733 35.094C38.486 35.1815 38.437 35.3001 38.437 35.4238C38.437 35.5475 38.486 35.6661 38.5733 35.7536C38.6606 35.8412 38.779 35.8905 38.9026 35.8908H74.388C74.5116 35.8905 74.63 35.8412 74.7173 35.7536C74.8046 35.6661 74.8536 35.5475 74.8536 35.4238C74.8536 35.3001 74.8046 35.1815 74.7173 35.094C74.63 35.0064 74.5116 34.9571 74.388 34.9568H38.9026Z" fill="#E4E4E4"/>
<path d="M38.9026 37.6957C38.779 37.696 38.6606 37.7453 38.5733 37.8329C38.486 37.9204 38.437 38.039 38.437 38.1627C38.437 38.2864 38.486 38.405 38.5733 38.4925C38.6606 38.5801 38.779 38.6294 38.9026 38.6297H86.9243C87.0479 38.6294 87.1663 38.5801 87.2536 38.4925C87.3409 38.405 87.3899 38.2864 87.3899 38.1627C87.3899 38.039 87.3409 37.9204 87.2536 37.8329C87.1663 37.7453 87.0479 37.696 86.9243 37.6957H38.9026Z" fill="#E4E4E4"/>
<path d="M38.9026 40.498C38.779 40.4983 38.6606 40.5476 38.5733 40.6352C38.486 40.7227 38.437 40.8413 38.437 40.965C38.437 41.0887 38.486 41.2073 38.5733 41.2948C38.6606 41.3824 38.779 41.4317 38.9026 41.432H74.388C74.5116 41.4317 74.63 41.3824 74.7173 41.2948C74.8046 41.2073 74.8536 41.0887 74.8536 40.965C74.8536 40.8413 74.8046 40.7227 74.7173 40.6352C74.63 40.5476 74.5116 40.4983 74.388 40.498H38.9026Z" fill="#E4E4E4"/>
<path d="M38.9026 43.3099C38.779 43.3102 38.6606 43.3595 38.5733 43.4471C38.486 43.5346 38.437 43.6532 38.437 43.7769C38.437 43.9005 38.486 44.0192 38.5733 44.1067C38.6606 44.1943 38.779 44.2436 38.9026 44.2439H86.9243C87.0479 44.2436 87.1663 44.1943 87.2536 44.1067C87.3409 44.0192 87.3899 43.9005 87.3899 43.7769C87.3899 43.6532 87.3409 43.5346 87.2536 43.4471C87.1663 43.3595 87.0479 43.3102 86.9243 43.3099H38.9026Z" fill="#E4E4E4"/>
<path d="M38.9026 46.1122C38.779 46.1125 38.6606 46.1618 38.5733 46.2494C38.486 46.3369 38.437 46.4555 38.437 46.5792C38.437 46.7029 38.486 46.8215 38.5733 46.909C38.6606 46.9966 38.779 47.0459 38.9026 47.0462H74.388C74.5116 47.0459 74.63 46.9966 74.7173 46.909C74.8046 46.8215 74.8536 46.7029 74.8536 46.5792C74.8536 46.4555 74.8046 46.3369 74.7173 46.2494C74.63 46.1618 74.5116 46.1125 74.388 46.1122H38.9026Z" fill="#E4E4E4"/>
<path d="M46.5087 22.86C45.1824 22.86 43.8859 22.4665 42.7831 21.7293C41.6803 20.992 40.8208 19.9441 40.3132 18.7181C39.8056 17.492 39.6728 16.1429 39.9316 14.8414C40.1903 13.5398 40.829 12.3443 41.7668 11.4059C42.7047 10.4675 43.8996 9.82851 45.2004 9.56961C46.5012 9.31071 47.8495 9.44358 49.0749 9.95141C50.3002 10.4592 51.3476 11.3192 52.0844 12.4226C52.8213 13.526 53.2146 14.8233 53.2146 16.1503C53.2126 17.9292 52.5054 19.6347 51.2483 20.8925C49.9911 22.1504 48.2866 22.858 46.5087 22.86Z" fill="#F9A826"/>
<path d="M26.1528 48.2296C26.1412 47.9847 26.076 47.7454 25.962 47.5284C25.8479 47.3114 25.6877 47.122 25.4926 46.9737C25.2975 46.8254 25.0722 46.7216 24.8327 46.6698C24.5932 46.618 24.3453 46.6193 24.1064 46.6738L21.8898 43.5483L19.663 44.4328L22.8551 48.8026C22.9731 49.1982 23.2321 49.5366 23.5828 49.7539C23.9336 49.9712 24.3518 50.0523 24.7583 49.9816C25.1648 49.911 25.5312 49.6936 25.7882 49.3707C26.0453 49.0478 26.175 48.6418 26.1528 48.2296H26.1528Z" fill="#A0616A"/>
<path d="M21.8327 47.9981L15.1257 39.2923L17.6388 31.3898C17.8229 29.403 19.0655 28.8482 19.1184 28.8255L19.199 28.7909L21.3858 34.6258L19.7802 38.9099L23.7212 45.5418L21.8327 47.9981Z" fill="#3F3D56"/>
<path d="M45.1249 21.1609C44.8818 21.1914 44.6483 21.2749 44.4409 21.4055C44.2335 21.536 44.0572 21.7105 43.9245 21.9166C43.7918 22.1227 43.7058 22.3554 43.6727 22.5983C43.6396 22.8413 43.6601 23.0885 43.7328 23.3226L40.7898 25.7755L41.8433 27.9285L45.9508 24.4062C46.3358 24.2579 46.6531 23.9735 46.8425 23.6067C47.0319 23.24 47.0803 22.8165 46.9785 22.4165C46.8767 22.0165 46.6318 21.6677 46.2902 21.4363C45.9486 21.2049 45.5339 21.1069 45.1249 21.1609Z" fill="#A0616A"/>
<path d="M45.2282 25.4883L37.0719 32.852L29.0031 30.9561C27.0091 30.926 26.3603 29.7294 26.3336 29.6784L26.2928 29.6006L31.938 26.968L36.331 28.2384L42.6346 23.7943L45.2282 25.4883Z" fill="#3F3D56"/>
<path d="M31.1001 77.8372L33.2916 77.837L34.334 69.3796L31.0997 69.3797L31.1001 77.8372Z" fill="#A0616A"/>
<path d="M37.5179 79.8729L30.6305 79.8732L30.6304 77.2107L35.5855 77.2105C36.098 77.2105 36.5895 77.4141 36.9519 77.7767C37.3143 78.1393 37.5179 78.631 37.5179 79.1437L37.5179 79.8729L37.5179 79.8729Z" fill="#2F2E41"/>
<path d="M22.3412 77.8372L24.5327 77.837L25.5752 69.3796L22.3409 69.3797L22.3412 77.8372Z" fill="#A0616A"/>
<path d="M28.7592 79.8729L21.8717 79.8732L21.8716 77.2107L26.8268 77.2105C27.0805 77.2105 27.3318 77.2605 27.5662 77.3576C27.8007 77.4548 28.0137 77.5972 28.1931 77.7767C28.3725 77.9562 28.5149 78.1693 28.612 78.4039C28.7091 78.6385 28.7591 78.8899 28.7591 79.1438L28.7592 79.8729Z" fill="#2F2E41"/>
<path d="M21.5619 46.9664L21.7406 59.486L21.9195 75.9403L25.8519 75.5826L27.8182 52.8686L30.3208 75.5826H34.3806L34.7895 52.6898L33.3595 47.6819L21.5619 46.9664Z" fill="#2F2E41"/>
<path d="M29.2589 48.6477C24.98 48.648 21.0414 46.7103 20.9883 46.6837L20.9441 46.6616L20.585 38.0395C20.4809 37.7348 18.4306 31.7227 18.0833 29.8118C17.7315 27.8757 22.8306 26.1766 23.4498 25.9779L23.5903 24.4204L29.3045 23.8043L30.0288 25.7972L32.0788 26.5663C32.3112 26.6536 32.5036 26.8231 32.6194 27.0428C32.7352 27.2624 32.7665 27.517 32.7073 27.7582L31.5679 32.3942L34.3506 47.7323L33.7515 47.7582C32.3155 48.4071 30.7657 48.6476 29.2589 48.6477Z" fill="#3F3D56"/>
<path d="M28.6445 22.3134C30.6383 21.2229 31.371 18.7217 30.2811 16.7268C29.1912 14.7319 26.6914 13.9988 24.6976 15.0893C22.7038 16.1798 21.9711 18.681 23.061 20.6759C24.1509 22.6708 26.6507 23.404 28.6445 22.3134Z" fill="#A0616A"/>
<path d="M23.3388 22.6865C24.1229 23.5222 25.579 23.0736 25.6812 21.9319C25.6892 21.8433 25.6886 21.7541 25.6795 21.6656C25.6267 21.1599 25.3347 20.7007 25.4047 20.1668C25.4205 20.0339 25.47 19.9072 25.5484 19.7988C26.1732 18.9617 27.6399 20.1733 28.2296 19.4154C28.5912 18.9507 28.1661 18.2191 28.4436 17.6997C28.8098 17.0143 29.8945 17.3524 30.5748 16.977C31.3316 16.5593 31.2863 15.3975 30.7881 14.6908C30.1805 13.8289 29.1153 13.369 28.0633 13.3028C27.0113 13.2365 25.9665 13.521 24.9844 13.904C23.8685 14.3391 22.7619 14.9405 22.0752 15.9222C21.2401 17.1162 21.1597 18.7213 21.5774 20.1174C21.8314 20.9666 22.6985 22.0041 23.3388 22.6865Z" fill="#2F2E41"/>
<path d="M52.2788 79.979H0.136855C0.100559 79.979 0.0657472 79.9646 0.0400818 79.9389C0.0144165 79.9132 0 79.8784 0 79.8421C0 79.8058 0.0144165 79.7709 0.0400818 79.7452C0.0657472 79.7196 0.100559 79.7051 0.136855 79.7051H52.2788C52.3151 79.7051 52.3499 79.7196 52.3755 79.7452C52.4012 79.7709 52.4156 79.8058 52.4156 79.8421C52.4156 79.8784 52.4012 79.9132 52.3755 79.9389C52.3499 79.9646 52.3151 79.979 52.2788 79.979Z" fill="#CACACA"/>
<path d="M46.1215 18.6845C46.0006 18.6847 45.8841 18.6389 45.7956 18.5564L43.5844 16.5014C43.4915 16.4149 43.4367 16.295 43.4321 16.1681C43.4275 16.0411 43.4734 15.9175 43.5598 15.8245C43.6462 15.7314 43.766 15.6765 43.8928 15.6717C44.0197 15.667 44.1432 15.7128 44.2364 15.7991L46.1093 17.5398L49.8149 13.8322C49.8593 13.7874 49.9121 13.7519 49.9703 13.7276C50.0285 13.7032 50.0909 13.6907 50.154 13.6906C50.217 13.6904 50.2795 13.7028 50.3378 13.7269C50.3961 13.751 50.449 13.7863 50.4936 13.831C50.5382 13.8756 50.5735 13.9286 50.5976 13.9869C50.6217 14.0452 50.634 14.1077 50.6339 14.1708C50.6337 14.2339 50.6211 14.2963 50.5968 14.3546C50.5725 14.4128 50.537 14.4656 50.4922 14.5101L46.4603 18.5442C46.4159 18.5887 46.363 18.6241 46.3049 18.6482C46.2468 18.6722 46.1844 18.6846 46.1215 18.6845Z" fill="white"/>
</g>
<defs>
<clipPath id="clip0">
<rect width="93.1765" height="80" fill="white"/>
</clipPath>
</defs>
</svg>
