<svg width="91" height="80" viewBox="0 0 91 80" fill="none" xmlns="http://www.w3.org/2000/svg">
<g clip-path="url(#clip0)">
<path d="M84.6377 80V66.087C84.6377 66.087 89.8551 75.9507 84.6377 80Z" fill="#FABD02"/>
<path d="M84.6099 80L75.3623 70.7246C75.3623 70.7246 85.2269 73.363 84.6099 80Z" fill="#FABD02"/>
<path d="M38.9032 30.9373C38.9668 31.011 39.0251 31.0902 39.0776 31.1743L47.2458 30.9489L48.1987 28.9855L51.0145 30.2198L49.6271 33.8805C49.515 34.1762 49.3209 34.423 49.0739 34.5837C48.8268 34.7444 48.5402 34.8105 48.2571 34.7719L39.0286 33.5149C38.8109 33.8256 38.5144 34.0543 38.1787 34.1704C37.8429 34.2866 37.4838 34.2847 37.149 34.1651C36.8142 34.0454 36.5197 33.8137 36.3045 33.5007C36.0894 33.1877 35.9638 32.8083 35.9446 32.4129C35.9254 32.0175 36.0134 31.6248 36.1969 31.2872C36.3804 30.9496 36.6507 30.6829 36.9719 30.5227C37.2931 30.3625 37.6499 30.3164 37.9949 30.3905C38.3399 30.4645 38.6567 30.6553 38.9032 30.9373Z" fill="#FFB7B7"/>
<path d="M63.7677 77.6812H61.411L60.2898 67.2464L63.7681 67.2466L63.7677 77.6812Z" fill="#FFB7B7"/>
<path d="M63.768 80L55.6522 79.9997V79.8902C55.6523 78.9968 55.9851 78.1401 56.5775 77.5084C57.1699 76.8767 57.9733 76.5218 58.8111 76.5217H58.8113L63.7682 76.5219L63.768 80Z" fill="#2F2E41"/>
<path d="M41.6096 77.6812L39.4203 76.6878L41.9861 67.2464L45.2174 68.7125L41.6096 77.6812Z" fill="#FFB7B7"/>
<path d="M40.5499 80L33.6232 76.446L33.6606 76.3407C33.9661 75.482 34.5431 74.8041 35.2647 74.4563C35.9862 74.1084 36.7933 74.1191 37.5084 74.4859L37.5085 74.486L41.7391 76.6567L40.5499 80Z" fill="#2F2E41"/>
<path d="M52.3291 32.8408L52.174 35.895L56.7067 36.4845L61.4493 37.1014L60.0533 32.4637L52.3291 32.8408Z" fill="#FFB7B7"/>
<path d="M51.8465 36.5085L49.8551 21.311L53.3067 20.0727L54.3205 18.5507L59.2539 18.8703L59.9781 20.6464L62.6087 22.0071L62.2045 30.226L62.4994 37.1014L51.8465 36.5085Z" fill="#2F2E41"/>
<path d="M50.671 32.4638L46.3768 31.0172L46.3951 30.9529C46.4136 30.888 48.2412 24.4576 48.4839 23.4242C48.7367 22.3477 49.6603 22.05 49.6995 22.0379L49.7282 22.029L51.4276 22.4645L52.1739 27.402L50.671 32.4638Z" fill="#2F2E41"/>
<path d="M43.1056 75.3623L38.2609 74.3736L46.0041 53.1156L48.6542 45.8648C48.6542 45.8648 50.3351 40.0511 51.0945 37.8013L51.5528 34.7826L62.4016 35.9773C62.4016 35.9773 65.4317 40.4047 64.5112 47.621L64.9275 74.7443L60.0828 74.9915L56.0248 47.6363L48.9027 62.6322C48.9027 62.6322 46.6579 69.0315 45.0518 70.4186L43.1056 75.3623Z" fill="#2F2E41"/>
<path d="M57.2434 37.4405C57.3298 37.4386 57.4164 37.4431 57.5021 37.4542L62.6331 31.8934L62.0362 30.1844L64.6147 28.9855L65.9787 31.9129C66.0889 32.1493 66.1159 32.4137 66.0557 32.6661C65.9955 32.9185 65.8513 33.1455 65.6448 33.3128L58.9149 38.768C58.9662 39.083 58.9161 39.4055 58.7711 39.6926C58.6262 39.9797 58.3933 40.2177 58.1035 40.3751C57.8136 40.5325 57.4806 40.6017 57.1486 40.5736C56.8167 40.5455 56.5015 40.4214 56.2451 40.2177C55.9887 40.0141 55.8031 39.7406 55.7132 39.4336C55.6232 39.1267 55.633 38.8008 55.7414 38.4993C55.8498 38.1978 56.0515 37.935 56.3198 37.7459C56.5881 37.5568 56.9102 37.4503 57.2434 37.4405Z" fill="#FFB7B7"/>
<path d="M62.2766 32.4638L60.2898 27.0587L61.0647 23.2938L61.8996 22.0738C61.9608 22.0435 62.0267 22.0283 62.0932 22.029C62.1597 22.0297 62.2254 22.0464 62.2861 22.078C62.594 22.2213 62.8562 22.6606 63.0655 23.3837L64.9275 29.5177L62.2766 32.4638Z" fill="#2F2E41"/>
<path d="M52.174 16.7288V13.0481C52.174 11.74 52.6626 10.4855 53.5323 9.56056C54.402 8.6356 55.5816 8.11597 56.8116 8.11597C58.0416 8.11597 59.2212 8.6356 60.091 9.56056C60.9607 10.4855 61.4493 11.74 61.4493 13.0481V16.7288C61.4491 16.9045 61.3834 17.0729 61.2666 17.1971C61.1499 17.3213 60.9915 17.3911 60.8263 17.3913H52.7969C52.6318 17.3911 52.4734 17.3213 52.3566 17.1971C52.2398 17.0729 52.1741 16.9045 52.174 16.7288Z" fill="#2F2E41"/>
<path d="M55.6522 17.3913C57.5732 17.3913 59.1305 15.834 59.1305 13.913C59.1305 11.992 57.5732 10.4348 55.6522 10.4348C53.7312 10.4348 52.174 11.992 52.174 13.913C52.174 15.834 53.7312 17.3913 55.6522 17.3913Z" fill="#FFB7B7"/>
<path d="M51.0145 13.8272C51.0156 12.6204 51.4067 11.4634 52.1018 10.6101C52.797 9.75675 53.7396 9.27675 54.7227 9.27539H55.4224C56.4055 9.27675 57.348 9.75675 58.0432 10.6101C58.7383 11.4634 59.1294 12.6204 59.1305 13.8272V13.9131H57.6519L57.1476 12.1796L57.0467 13.9131H56.2826L56.0281 13.0385L55.9772 13.9131H51.0145L51.0145 13.8272Z" fill="#2F2E41"/>
<path d="M54.6214 18.2794C54.5478 18.1811 54.5039 18.0644 54.4946 17.9426C54.4854 17.8209 54.5112 17.699 54.5691 17.5911C55.3551 16.1173 56.4556 13.3942 54.9949 11.7148L54.8899 11.5942H59.1305V17.8704L55.2782 18.5404C55.2392 18.5472 55.1997 18.5507 55.1601 18.5507C55.0549 18.5507 54.9513 18.5261 54.8576 18.4789C54.764 18.4318 54.683 18.3634 54.6214 18.2794Z" fill="#2F2E41"/>
<path d="M4.6377 75.6369L7.0748 76.5218L11.5942 67.3928L7.99719 66.087L4.6377 75.6369Z" fill="#9F616A"/>
<path d="M3.47827 77.2714L4.61167 74.2029L9.4312 75.8695C10.2452 76.152 10.9101 76.7353 11.2802 77.4916C11.6502 78.2478 11.6951 79.1152 11.405 79.9034L11.3693 80L3.47827 77.2714Z" fill="#2F2E41"/>
<path d="M19.7107 77.6811L22.8529 77.6809L24.3479 68.4058L19.7102 68.4059L19.7107 77.6811Z" fill="#9F616A"/>
<path d="M19.7102 76.5219L24.667 76.5217H24.6672C25.082 76.5217 25.4928 76.6088 25.8761 76.7781C26.2593 76.9474 26.6076 77.1955 26.9009 77.5083C27.1942 77.8211 27.4269 78.1924 27.5857 78.6011C27.7444 79.0098 27.8261 79.4478 27.8261 79.8902V79.9997L19.7103 80L19.7102 76.5219Z" fill="#2F2E41"/>
<path d="M15.0725 18.4544L15.9883 16.2319C15.9883 16.2319 19.4 17.2817 19.7102 19.7101L15.0725 18.4544Z" fill="#F1F1F1"/>
<path d="M10.5157 42.1211L13.3664 57.5725L5.79712 70.5746L10.319 72.2933L17.9866 59.6897L18.9696 56.2523L19.5594 74.2029L23.6376 74.0827L25.5073 57.3212L22.5084 41.7391L10.5157 42.1211Z" fill="#2F2E41"/>
<path d="M15.4263 45.2174C11.0545 45.2174 8.27881 44.4079 8.21663 44.3951L8.11597 44.3743L10.3931 34.1535L10.4956 24.7257C10.4956 20.7305 13.2117 17.785 13.5886 17.5132C13.652 17.2707 13.7694 17.0445 13.9325 16.8505C14.0956 16.6564 14.3005 16.4992 14.5328 16.3897C15.4388 15.9918 16.5459 16.4693 16.5925 16.4898L19.9154 17.696L19.9311 17.7406C19.9711 17.8549 24.3479 31.7651 24.3479 31.7651C24.3479 31.7651 24.083 43.919 23.9906 44.3171C23.9906 44.3171 17.8553 45.2174 15.4263 45.2174Z" fill="#3F3D56"/>
<path d="M19.1305 15.0725C21.3716 15.0725 23.1885 13.2557 23.1885 11.0145C23.1885 8.77336 21.3716 6.95654 19.1305 6.95654C16.8893 6.95654 15.0725 8.77336 15.0725 11.0145C15.0725 13.2557 16.8893 15.0725 19.1305 15.0725Z" fill="#9F616A"/>
<path opacity="0.2" d="M13.9131 25.5073L21.995 37.1015L23.1884 31.6871L13.9131 25.5073Z" fill="black"/>
<path d="M38.6725 33.198C38.4508 33.352 38.1934 33.4615 37.9183 33.5186C37.6433 33.5758 37.3573 33.5793 37.0806 33.5289C36.8038 33.4785 36.543 33.3755 36.3165 33.227C36.09 33.0785 35.9033 32.8881 35.7696 32.6694L28.9855 33.6232L30.4552 30.7654L36.6722 30.2979C37.1055 30.1249 37.5959 30.0976 38.0505 30.2211C38.5052 30.3445 38.8924 30.6101 39.139 30.9676C39.3856 31.3251 39.4742 31.7496 39.3883 32.1606C39.3023 32.5717 39.0476 32.9408 38.6725 33.198H38.6725Z" fill="#9F616A"/>
<path d="M30.1449 30.3856L32.8684 30.1449L33.6232 33.5685L30.1961 33.6232L30.1449 30.3856Z" fill="#F1F1F1"/>
<path d="M32.4638 34.7826L20.9682 33.7792L15.1636 24.7298L15.1457 24.6498C14.981 23.9106 15.0964 23.1378 15.4703 22.4759C15.8442 21.8139 16.451 21.3079 17.1776 21.0525C17.9042 20.797 18.7008 20.8095 19.4186 21.0876C20.1365 21.3657 20.7265 21.8905 21.0786 22.5638L24.4861 29.0793L31.3629 30.0983L32.4638 34.7826Z" fill="#3F3D56"/>
<path d="M15.0314 14.9376L18.981 15.0725C19.2218 15.0807 19.8752 12.6094 19.9607 12.0968C20.0283 11.763 20.2213 11.4641 20.5037 11.2558C20.7861 11.0475 21.1385 10.9441 21.4952 10.9649C21.7909 10.9914 22.5364 10.4661 23.3057 9.844C24.7663 8.66296 24.6903 6.44479 23.0859 5.44681C23.042 5.41954 22.999 5.39463 22.9568 5.3721C21.9446 4.83327 20.7606 4.65233 19.6008 4.63852C18.5493 4.62602 17.4681 4.75189 16.5419 5.22522C14.8812 6.0738 13.9975 7.9282 13.9198 9.71966C13.8422 11.5111 14.446 13.2628 15.1312 14.9332" fill="#2F2E41"/>
</g>
<defs>
<clipPath id="clip0">
<rect width="90.4348" height="80" fill="white"/>
</clipPath>
</defs>
</svg>
