<svg width="20" height="17" viewBox="0 0 20 17" fill="none" xmlns="http://www.w3.org/2000/svg">
<path fill-rule="evenodd" clip-rule="evenodd" d="M18 0.299316H2C0.9 0.299316 0.01 1.20539 0.01 2.31281L0 14.3937C0 15.5012 0.9 16.4072 2 16.4072H18C19.1 16.4072 20 15.5012 20 14.3937V2.31281C20 1.20539 19.1 0.299316 18 0.299316ZM18 13.3868C18 13.9405 17.55 14.3936 17 14.3936H3C2.45 14.3936 2 13.9405 2 13.3868V4.32617L8.94 8.69542C9.59 9.10818 10.41 9.10818 11.06 8.69542L18 4.32617V13.3868ZM2 2.31299L10 7.34668L18 2.31299H2Z" fill="#fabd02" fill-opacity="0.8"/>
</svg>
