<svg width="18" height="19" viewBox="0 0 18 19" fill="none" xmlns="http://www.w3.org/2000/svg">
<path d="M16.2036 12.9852L13.6637 12.6933C13.0537 12.6228 12.4537 12.8342 12.0237 13.2671L10.1837 15.1195C7.35366 13.6698 5.03367 11.3442 3.59367 8.48515L5.44367 6.62271C5.87366 6.18982 6.08366 5.58578 6.01366 4.97168L5.72366 2.43473C5.60366 1.41794 4.75367 0.652832 3.73367 0.652832H2.00367C0.873672 0.652832 -0.0663264 1.59915 0.00367347 2.73675C0.533673 11.3342 7.36366 18.2 15.8937 18.7336C17.0236 18.8041 17.9636 17.8578 17.9636 16.7202V14.9785C17.9736 13.9617 17.2136 13.106 16.2036 12.9852Z" fill="white" fill-opacity="0.8"/>
</svg>
