<svg width="14" height="21" viewBox="0 0 14 21" fill="none" xmlns="http://www.w3.org/2000/svg">
<path fill-rule="evenodd" clip-rule="evenodd" d="M0 7.69703C0 3.80097 3.13 0.649902 7 0.649902C10.87 0.649902 14 3.80097 14 7.69703C14 11.8951 9.58 17.6838 7.77 19.8886C7.37 20.3718 6.64 20.3718 6.24 19.8886C4.42 17.6838 0 11.8951 0 7.69703ZM4.5 7.69678C4.5 9.08594 5.62 10.2134 7 10.2134C8.38 10.2134 9.5 9.08594 9.5 7.69678C9.5 6.30761 8.38 5.18018 7 5.18018C5.62 5.18018 4.5 6.30761 4.5 7.69678Z" fill="white" fill-opacity="0.8"/>
</svg>
