<svg width="19" height="22" viewBox="0 0 19 22" fill="none" xmlns="http://www.w3.org/2000/svg">
<path d="M18.2919 4.66913H17.7726V0.712844C17.7726 0.319124 17.4555 0 17.0645 0H7.71798C7.32697 0 7.00991 0.319196 7.00991 0.712844V4.66906H6.08942V4.20578C6.08942 3.81206 5.77243 3.49294 5.38142 3.49294H0.708C0.317059 3.49294 0 3.81213 0 4.20578V18.3201C0 18.7138 0.31713 19.0329 0.708 19.0329H2.33664V19.4962C2.33664 20.5379 3.22602 21.3853 4.31924 21.3853H8.78009C9.87331 21.3853 10.7627 20.4899 10.7627 19.3893V17.8567H18.2919C18.6829 17.8567 19 17.5375 19 17.1438V5.38197C18.9999 4.98825 18.6829 4.66913 18.2919 4.66913ZM8.42598 1.42569H16.3564V4.66913H8.42598V1.42569ZM1.41614 4.9187H4.67327V17.6073H1.41614V4.9187ZM9.34655 19.3894C9.34655 19.7038 9.0925 19.9596 8.78009 19.9596H4.31924C4.01226 19.9596 3.75278 19.7474 3.75278 19.4962V19.0329H5.38142C5.7725 19.0329 6.08942 18.7137 6.08942 18.3201V17.8567H9.34655V19.3894ZM17.5838 16.4311H6.08935V6.09482H17.5838V16.4311Z" fill="white" fill-opacity="0.8"/>
<path d="M14.7278 9.62354H15.8961C16.2872 9.62354 16.6041 9.30414 16.6041 8.9104C16.6041 8.51666 16.2871 8.19727 15.8961 8.19727H14.7278C14.3368 8.19727 14.0198 8.51666 14.0198 8.9104C14.0198 9.30414 14.3368 9.62354 14.7278 9.62354Z" fill="white" fill-opacity="0.8"/>
<path d="M11.223 9.62354H12.3913C12.7824 9.62354 13.0993 9.30414 13.0993 8.9104C13.0993 8.51666 12.7823 8.19727 12.3913 8.19727H11.223C10.832 8.19727 10.5149 8.51666 10.5149 8.9104C10.5149 9.30414 10.832 9.62354 11.223 9.62354Z" fill="white" fill-opacity="0.8"/>
<path d="M7.71797 9.62354H8.88629C9.27738 9.62354 9.5943 9.30414 9.5943 8.9104C9.5943 8.51666 9.27731 8.19727 8.88629 8.19727H7.71797C7.32695 8.19727 7.00989 8.51666 7.00989 8.9104C7.00989 9.30414 7.32695 9.62354 7.71797 9.62354Z" fill="white" fill-opacity="0.8"/>
<path d="M14.7278 11.9761H15.8961C16.2872 11.9761 16.6041 11.6569 16.6041 11.2632C16.6041 10.8695 16.2871 10.5503 15.8961 10.5503H14.7278C14.3368 10.5503 14.0198 10.8696 14.0198 11.2632C14.0197 11.6569 14.3368 11.9761 14.7278 11.9761Z" fill="white" fill-opacity="0.8"/>
<path d="M11.223 11.9761H12.3913C12.7824 11.9761 13.0993 11.6569 13.0993 11.2632C13.0993 10.8695 12.7823 10.5503 12.3913 10.5503H11.223C10.832 10.5503 10.5149 10.8696 10.5149 11.2632C10.5148 11.6569 10.832 11.9761 11.223 11.9761Z" fill="white" fill-opacity="0.8"/>
<path d="M7.71797 11.9761H8.88629C9.27738 11.9761 9.5943 11.6569 9.5943 11.2632C9.5943 10.8695 9.27731 10.5503 8.88629 10.5503H7.71797C7.32695 10.5503 7.00989 10.8696 7.00989 11.2632C7.00989 11.6569 7.32695 11.9761 7.71797 11.9761Z" fill="white" fill-opacity="0.8"/>
<path d="M14.7278 14.3286H15.8961C16.2872 14.3286 16.6041 14.0094 16.6041 13.6157C16.6041 13.222 16.2871 12.9028 15.8961 12.9028H14.7278C14.3368 12.9028 14.0198 13.2221 14.0198 13.6157C14.0197 14.0095 14.3368 14.3286 14.7278 14.3286Z" fill="white" fill-opacity="0.8"/>
<path d="M11.223 14.3286H12.3913C12.7824 14.3286 13.0993 14.0094 13.0993 13.6157C13.0993 13.222 12.7823 12.9028 12.3913 12.9028H11.223C10.832 12.9028 10.5149 13.2221 10.5149 13.6157C10.5148 14.0095 10.832 14.3286 11.223 14.3286Z" fill="white" fill-opacity="0.8"/>
<path d="M7.71797 14.3286H8.88629C9.27738 14.3286 9.5943 14.0094 9.5943 13.6157C9.5943 13.222 9.27731 12.9028 8.88629 12.9028H7.71797C7.32695 12.9028 7.00989 13.2221 7.00989 13.6157C7.00989 14.0095 7.32695 14.3286 7.71797 14.3286Z" fill="white" fill-opacity="0.8"/>
<path d="M14.7279 2.31641H10.0546C9.66362 2.31641 9.34656 2.63564 9.34656 3.02933C9.34656 3.42303 9.66369 3.74219 10.0546 3.74219H14.7279C15.119 3.74219 15.436 3.42295 15.436 3.02933C15.436 2.63557 15.119 2.31641 14.7279 2.31641Z" fill="white" fill-opacity="0.8"/>
</svg>
