<svg width="20" height="20" viewBox="0 0 20 20" fill="none" xmlns="http://www.w3.org/2000/svg">
<path d="M7.39795 0.729034C7.02975 0.818035 6.59675 1.18223 6.40655 1.57063L6.30955 1.76484L6.29735 5.00983L6.28515 8.25883H6.09495C5.64175 8.25883 5.16035 8.46523 4.80015 8.81323L4.58195 9.02763L4.39575 8.88203C4.12055 8.67563 3.67955 8.46943 3.35595 8.40063C2.02475 8.12143 0.733951 8.89423 0.276751 10.2416C0.203951 10.452 0.199951 10.6462 0.199951 13.7616C0.199951 17.0552 0.199951 17.0592 0.288951 17.3424C0.499351 18.002 1.03755 18.6412 1.64435 18.9366C2.55075 19.3858 3.50555 19.3048 4.33495 18.714L4.59395 18.528L4.82455 18.7464C4.94995 18.8678 5.13615 19.0134 5.23735 19.0742C5.65415 19.317 5.33035 19.3048 12.0146 19.3048C15.9837 19.3048 18.1849 19.2886 18.3021 19.2604C18.7593 19.1552 19.2894 18.7586 19.5483 18.3298C19.8153 17.8848 19.8073 18.0344 19.7951 13.6768L19.7829 9.73583L19.6899 9.50523C19.4918 9.01163 19.0303 8.55843 18.5328 8.37223C18.4195 8.32783 18.1929 8.28323 18.0351 8.27103L17.74 8.24683V7.00863C17.74 5.88383 17.7317 5.75423 17.6631 5.60863C17.5701 5.40623 12.9615 0.797834 12.7915 0.737036C12.6579 0.684635 7.60435 0.680635 7.39795 0.729034ZM11.6384 3.71924L11.6505 5.52783L11.784 5.79883C11.9378 6.11443 12.1886 6.35723 12.5204 6.51503L12.743 6.62023L14.6365 6.63243L16.5261 6.64463V7.44983V8.25903H12.0146H7.50315V5.08283V1.90663H9.56675H11.6262L11.6384 3.71924ZM14.3614 3.92963L15.8584 5.42663H14.3492H12.844V3.92963C12.844 3.10423 12.848 2.43264 12.8562 2.43264C12.8604 2.43264 13.54 3.10423 14.3614 3.92963ZM18.3265 9.53763C18.6017 9.66703 18.5896 9.44463 18.5896 13.79C18.5896 16.8408 18.5774 17.7268 18.5369 17.8078C18.5086 17.8604 18.4237 17.9494 18.3507 17.998L18.2132 18.091L11.97 18.0828L5.72275 18.0706L5.59335 17.937L5.45975 17.8076L5.44755 13.8424C5.43535 9.45243 5.42735 9.64663 5.69035 9.53323C5.80355 9.48463 6.74235 9.47663 12.0064 9.47263C17.5578 9.47283 18.2051 9.48083 18.3265 9.53763ZM3.51775 9.66703C3.78075 9.78843 3.99515 9.99883 4.11255 10.2578L4.20555 10.4642L4.21775 13.7092C4.22595 16.857 4.22595 16.9622 4.14895 17.1848C4.03555 17.4964 3.82935 17.7392 3.54615 17.8768C3.33175 17.982 3.28315 17.99 2.80975 17.99C2.38095 17.99 2.27575 17.9778 2.11795 17.905C1.85095 17.7796 1.65675 17.5894 1.52715 17.3304L1.41395 17.0998V13.802C1.41395 10.6662 1.41795 10.4964 1.49075 10.3062C1.57575 10.0796 1.79415 9.82063 1.97635 9.72763C2.24335 9.58603 2.42135 9.55363 2.87055 9.56583C3.23055 9.57403 3.35595 9.59423 3.51775 9.66703Z" fill="white" fill-opacity="0.8"/>
<path d="M8.39331 11.3339V11.9409H9.18231H9.97131V11.3339V10.7269H9.18231H8.39331V11.3339Z" fill="white" fill-opacity="0.8"/>
<path d="M11.1852 11.3339V11.9409H11.9944H12.8036V11.3339V10.7269H11.9944H11.1852V11.3339Z" fill="white" fill-opacity="0.8"/>
<path d="M14.0176 11.3339V11.9409H14.8268H15.636V11.3339V10.7269H14.8268H14.0176V11.3339Z" fill="white" fill-opacity="0.8"/>
<path d="M8.39331 13.7617V14.3687H9.18231H9.97131V13.7617V13.1547H9.18231H8.39331V13.7617Z" fill="white" fill-opacity="0.8"/>
<path d="M11.1852 13.7617V14.3687H11.9944H12.8036V13.7617V13.1547H11.9944H11.1852V13.7617Z" fill="white" fill-opacity="0.8"/>
<path d="M14.0176 13.7617V14.3687H14.8268H15.636V13.7617V13.1547H14.8268H14.0176V13.7617Z" fill="white" fill-opacity="0.8"/>
<path d="M8.39331 16.1894V16.7964H9.18231H9.97131V16.1894V15.5824H9.18231H8.39331V16.1894Z" fill="white" fill-opacity="0.8"/>
<path d="M11.1852 16.1894V16.7964H11.9944H12.8036V16.1894V15.5824H11.9944H11.1852V16.1894Z" fill="white" fill-opacity="0.8"/>
<path d="M14.0176 16.1894V16.7964H14.8268H15.636V16.1894V15.5824H14.8268H14.0176V16.1894Z" fill="white" fill-opacity="0.8"/>
</svg>
