<svg width="240" height="168" viewBox="0 0 240 168" fill="none" xmlns="http://www.w3.org/2000/svg">
<rect width="240" height="168" fill="#DAE3EA"/>
<path fill-rule="evenodd" clip-rule="evenodd" d="M147 63V105C147 108.3 144.3 111 141 111H99C95.7 111 93 108.3 93 105V63C93 59.7 95.7 57 99 57H141C144.3 57 147 59.7 147 63ZM117 97.53L110.7 89.94C110.07 89.19 108.93 89.22 108.36 90L100.89 99.6C100.11 100.59 100.8 102.03 102.06 102.03H138.03C139.26 102.03 139.98 100.62 139.23 99.63L128.7 85.59C128.1 84.78 126.9 84.78 126.3 85.56L117 97.53Z" fill="#94A3B1"/>
</svg>
